<svg width="593" height="245" viewBox="0 0 593 245" fill="none" xmlns="http://www.w3.org/2000/svg">
<rect width="593" height="245" rx="16" fill="#FFFBF8"/>
<path d="M241.764 109.929C243.535 110.216 245.774 109.516 247.099 111.073C248.143 112.489 248.03 114.546 247.426 116.123C246.414 118.3 243.676 117.857 241.724 118.028C242.456 115.38 242.47 112.584 241.764 109.929ZM243.292 110.376C243.256 112.739 243.25 115.109 243.292 117.476C244.176 117.305 245.27 117.455 245.93 116.696C246.939 115.432 246.835 113.635 246.497 112.147C246.079 110.737 244.553 110.449 243.286 110.376H243.292Z" fill="#040404"/>
<path d="M234.477 110.042H236.589C236.107 111.338 236.175 112.733 236.184 114.106C237.823 114.544 239.24 113.122 238.826 111.68C238.763 111.466 238.635 111.277 238.46 111.139C238.285 111.002 238.071 110.922 237.849 110.913L236.229 110.836C236.487 110.622 236.327 110.269 236.589 110.051C236.664 109.989 237.962 109.993 238.194 109.993C240.584 110.31 240.497 113.714 238.35 114.334C239.581 115.391 239.997 117.089 241.291 118.099L239.509 117.989C238.527 116.683 238.284 114.204 236.175 114.495C236.175 115.395 236.216 116.302 236.259 117.209C236.459 117.423 236.86 117.85 237.057 118.064C236.158 118.039 235.26 118.024 234.368 118.017C234.564 117.835 234.959 117.466 235.162 117.284C235.149 114.801 235.868 112.104 234.477 110.042Z" fill="#010101"/>
<path d="M325.022 93.5124C320.754 81.4203 311.034 71.7535 299.534 66.3748C286.549 60.5512 271.366 60.0764 258.008 64.9483C248.431 67.9103 237.949 67.7179 228.438 64.5847C216.945 60.9208 204.567 61.1659 193.228 65.2819C179.417 70.357 167.62 81.8267 163.828 96.2777C161.97 102.597 162.524 109.249 162.945 115.72C163.854 123.278 164.618 131.104 168.026 138.016C166.302 135.762 165.418 133.014 164.494 130.364C161.916 122.044 160.67 113.361 160.188 104.678C160.036 93.2322 164.707 81.9144 172.565 73.6527C185.513 59.6444 206.219 53.9961 224.633 58.2286C227.755 58.7397 230.693 59.9523 233.758 60.7116C239.752 62.1167 246.032 62.4353 252.11 61.2997C256.286 60.6752 260.195 58.9472 264.363 58.2649C275.602 56.1926 287.595 57.2769 298.004 62.1145C308.61 66.7726 317.658 75.216 322.545 85.8003C323.563 88.2919 324.689 90.8112 325.022 93.5124Z" fill="url(#paint0_linear_1_496)"/>
<path d="M169.673 100.976C175.164 82.9965 192.118 69.2278 210.801 67.5553C215.856 67.2901 220.982 67.3693 225.933 68.5391C230.019 69.3262 233.775 71.2467 237.863 72.0166C244.63 73.4324 251.734 72.7929 258.24 70.481C267.416 67.3693 277.572 67.3158 286.835 70.1175C299.056 73.8559 309.534 82.9024 315.065 94.4427C315.746 95.9633 316.666 97.4518 316.749 99.1606C312.889 90.1483 306.318 82.2993 297.945 77.1858C286.364 69.8993 271.349 68.5391 258.588 73.4495C253.066 75.5732 247.118 76.2298 241.239 76.0266C250.472 81.3256 260.703 84.6437 271.283 85.7704C256.427 85.9479 241.935 80.7467 229.319 73.2036C220.395 70.4982 210.579 70.5238 201.778 73.704C191.463 77.359 182.573 84.9171 177.351 94.5689C171.647 105.177 170.636 118.176 174.545 129.558C175.341 131.953 176.451 134.216 177.49 136.513C182.56 147.527 186.666 159.005 189.478 170.806C191.068 177.346 192.05 184.025 193.893 190.501C192.186 190.501 190.479 190.604 188.772 190.396C187.332 184.316 186.314 178.146 184.718 172.109C181.792 159.593 177.249 147.514 171.867 135.882C166.873 125.047 166.022 112.352 169.673 100.976Z" fill="#B3B3B3"/>
<path d="M206.569 83.7088C209.881 82.7867 213.34 82.5179 216.754 82.9174C208.791 85.6357 201.192 89.8104 195.287 95.8906C189.22 101.96 185.287 109.768 182.571 117.833C180.68 102.585 191.92 87.4429 206.569 83.7088Z" fill="#B3B3B3"/>
<path d="M259.741 106.37C262.395 104.563 266.868 105.187 267.869 108.624C267.267 108.9 266.665 109.17 266.068 109.446C265.464 107.91 263.912 106.749 262.214 107.322C259.901 107.536 259.371 111.133 261.36 112.142C263.494 113.261 266.695 113.199 267.713 115.797C268.223 117.801 268.165 120.545 266.14 121.707C263.272 123.225 258.686 122.562 257.762 118.984L259.647 118.248C260.313 120.92 264.399 121.533 265.812 119.217C266.192 117.968 266.27 116.172 264.903 115.479C263.36 114.694 261.595 114.448 260.056 113.657C257.575 112.194 257.622 108.135 259.741 106.37Z" fill="#333333"/>
<path d="M297.887 105.583H299.887C299.897 111.144 299.897 116.712 299.887 122.288C299.383 122.288 298.365 122.278 297.857 122.271C297.883 121.912 297.93 121.202 297.955 120.834C296.485 123.36 292.019 122.819 291.654 119.752C291.573 117.222 291.27 114.583 291.884 112.11C292.859 109.544 296.564 109.57 297.908 111.802C297.855 109.732 297.887 107.66 297.887 105.583ZM294.605 112.157C293.325 112.773 293.395 114.403 293.436 115.609C293.562 117.106 293.058 118.817 294.05 120.124C295.117 121.217 297.42 120.785 297.731 119.177C298.024 117.466 297.898 115.714 297.836 113.99C297.87 112.408 295.934 111.274 294.599 112.157H294.605Z" fill="#333333"/>
<path d="M302.477 105.735C303.132 105.724 303.798 105.72 304.457 105.714C304.457 106.385 304.457 107.057 304.468 107.735C303.802 107.735 303.143 107.735 302.484 107.735C302.477 107.067 302.477 106.4 302.477 105.735Z" fill="#333333"/>
<path d="M314.346 107.572C316.363 106.828 318.898 107.213 320.336 108.894C321.681 110.65 321.296 113.013 321.448 115.079C321.339 117.318 321.789 119.711 320.833 121.82C319.485 124.684 315.251 125 312.955 123.159C310.561 120.763 311.557 117.078 311.335 114.052C311.132 111.612 311.647 108.4 314.346 107.572ZM314.814 109.497C313.864 109.912 313.386 110.979 313.36 111.973C313.307 114.046 313.36 116.123 313.335 118.199C313.36 119.288 313.288 120.537 314.071 121.407C315.609 123.255 319.391 122.402 319.406 119.763C319.406 117.004 319.389 114.234 319.323 111.475C319.098 109.426 316.476 108.472 314.814 109.499V109.497Z" fill="#333333"/>
<path d="M366.346 107.219L368.205 107.191C368.19 112.788 368.314 118.389 368.267 123.991H366.346C366.357 123.631 366.383 122.908 366.393 122.549C365.326 124.168 362.945 124.688 361.376 123.518C360.096 122.579 360.083 120.868 359.823 119.455L359.942 119.679C360.025 117.346 359.417 114.566 361.112 112.662C362.637 111.127 365.166 111.807 366.353 113.421C366.299 111.358 366.314 109.285 366.346 107.219ZM363.167 113.768C362.034 114.225 361.873 115.569 361.886 116.64C361.923 118.137 361.705 119.7 362.144 121.163C362.825 122.913 365.843 122.746 366.212 120.847C366.487 119.123 366.295 117.365 366.295 115.626C366.329 114.106 364.481 113.002 363.167 113.768Z" fill="#333333"/>
<path d="M398.966 107.208C399.629 107.245 400.295 107.296 400.965 107.354C400.965 107.972 400.944 108.588 400.94 109.206C400.27 109.217 399.6 109.223 398.934 109.238C398.944 108.556 398.955 107.884 398.966 107.208Z" fill="#333333"/>
<path d="M332.457 108.708L334.405 108.534C334.437 109.732 334.452 110.93 334.437 112.132C335.133 112.106 335.829 112.08 336.524 112.059V113.928L334.591 113.945C334.623 116.533 334.508 119.121 334.634 121.709C334.956 122.421 335.914 122.177 336.529 122.363V124.061C335.007 124.211 332.914 124.029 332.687 122.119C332.587 119.401 332.562 116.674 332.448 113.956C332.177 113.945 331.631 113.926 331.362 113.92C331.362 113.346 331.362 112.775 331.362 112.209L332.459 112.166C332.458 111.012 332.457 109.86 332.457 108.708Z" fill="#333333"/>
<path d="M392.664 108.468L394.504 108.396C394.504 109.565 394.504 110.748 394.504 111.914L396.638 111.867C396.638 112.508 396.638 113.15 396.638 113.791H394.679C394.717 116.311 394.602 118.837 394.726 121.356C394.83 122.282 396.006 122.012 396.646 122.184C396.646 122.761 396.646 123.338 396.646 123.922C395.201 124.016 393.219 123.922 392.835 122.179C392.543 119.414 392.745 116.597 392.564 113.813C392.293 113.802 391.753 113.781 391.484 113.766C391.484 113.338 391.484 112.444 391.484 112.001C391.764 111.986 392.314 111.944 392.596 111.922C392.545 110.771 392.568 109.617 392.664 108.468Z" fill="#333333"/>
<path d="M270.165 112.662C271.411 109.131 277.546 109.294 278.184 113.124C278.332 116.176 278.195 119.23 278.242 122.286C277.412 122.199 276.035 122.74 276.134 121.418C274.486 123.187 270.737 122.744 270.005 120.257C269.73 118.819 269.766 117.102 270.914 116.035C272.408 114.769 274.482 115.222 276.274 115.149C276.166 114.176 276.554 112.844 275.515 112.26C274.269 111.313 272.628 112.046 271.827 113.203L270.165 112.662ZM272.852 116.892C271.516 117.502 271.251 119.549 272.41 120.481C273.283 120.877 274.29 120.793 275.22 120.652C276.887 120.111 276.074 118.06 276.247 116.758C275.116 116.775 273.968 116.672 272.852 116.895V116.892Z" fill="#333333"/>
<path d="M280.912 110.404C281.552 110.404 282.179 110.404 282.813 110.404C282.885 113.329 282.646 116.274 282.928 119.185C283.447 121.309 287.196 121.037 287.213 118.757C287.326 115.977 287.213 113.182 287.254 110.397C287.913 110.397 288.572 110.397 289.238 110.397C289.238 114.358 289.238 118.323 289.238 122.293C288.568 122.282 287.902 122.278 287.239 122.271C287.254 121.923 287.29 121.221 287.305 120.866C285.837 123.355 281.456 122.829 281.029 119.842C280.756 116.708 280.984 113.547 280.912 110.404Z" fill="#333333"/>
<path d="M302.484 110.404H304.462V122.286H302.488C302.477 118.327 302.484 114.373 302.484 110.404Z" fill="#333333"/>
<path d="M325.842 113.945C326.964 112.448 328.989 111.379 330.799 112.348C330.643 112.775 330.321 113.654 330.159 114.086C328.706 113.575 326.569 113.92 326.134 115.633C325.537 118.413 325.993 121.302 326.149 124.113C325.421 124.113 324.696 124.113 323.972 124.113V112.258C324.457 112.258 325.411 112.258 325.893 112.258C325.872 112.679 325.842 113.533 325.842 113.945Z" fill="#333333"/>
<path d="M352.185 112.102C354.336 111.366 357.281 112.367 357.697 114.835C357.915 116.96 357.922 119.101 357.719 121.227C357.115 124.876 351.236 125.272 349.906 121.965C349.266 120.092 349.58 118.056 349.533 116.114C349.396 114.373 350.442 112.534 352.185 112.102ZM352.249 114.193C351.268 115.074 351.432 116.51 351.417 117.703C351.479 118.973 351.204 120.378 351.906 121.529C352.887 122.913 355.499 122.528 355.811 120.759C355.903 119.034 355.903 117.305 355.811 115.579C355.745 113.877 353.464 113.267 352.249 114.193Z" fill="#333333"/>
<path d="M372.968 112.117C375.166 111.201 378.343 112.149 378.781 114.741C378.988 116.913 378.988 119.1 378.781 121.272C378.085 124.731 372.573 125.137 371.098 122.085C370.33 120.201 370.635 118.114 370.599 116.135C370.527 114.484 371.312 112.673 372.968 112.117ZM374.116 113.761C373 113.907 372.532 115.119 372.552 116.114C372.579 117.733 372.36 119.403 372.754 120.99C373.424 122.804 376.412 122.684 376.879 120.776C377.05 119.055 376.978 117.309 376.931 115.581C376.916 114.208 375.336 113.344 374.116 113.761Z" fill="#333333"/>
<path d="M381.382 111.971C382.022 111.971 382.639 111.971 383.273 111.971C383.273 112.341 383.258 113.081 383.247 113.451C384.67 110.849 389.118 111.281 389.604 114.341C389.973 117.5 389.657 120.712 389.77 123.899C389.096 123.899 388.43 123.899 387.767 123.92C387.709 121.003 387.876 118.079 387.688 115.169C387.372 113.002 383.714 112.998 383.377 115.169C383.117 118.075 383.335 121.005 383.341 123.916C382.686 123.916 382.033 123.916 381.382 123.916C381.389 119.928 381.389 115.946 381.382 111.971Z" fill="#333333"/>
<path d="M399.01 111.866C399.516 111.866 400.517 111.877 401.016 111.881C401.016 115.848 401.016 119.819 401.016 123.794C400.376 123.794 399.736 123.794 399.096 123.794C399.036 119.816 399.194 115.838 399.01 111.866Z" fill="#333333"/>
<path d="M403.675 114.501C404.45 110.665 411.556 110.566 411.737 114.756C411.191 114.891 410.651 115.027 410.111 115.166C409.503 112.976 406.091 112.876 405.515 115.111C405.417 116.865 405.417 118.624 405.515 120.378C405.905 122.648 409.569 122.673 410.107 120.462C410.559 120.575 411.458 120.8 411.908 120.909C411.375 125.007 404.533 124.972 403.697 121.08C403.405 118.897 403.397 116.686 403.675 114.501Z" fill="#333333"/>
<path d="M258.349 168.869H260.302C261.766 172.705 263.247 176.536 264.674 180.39C266.042 176.516 267.557 172.69 269.038 168.858C269.678 168.858 270.319 168.858 270.97 168.879C270.97 174.44 270.97 180 270.97 185.561C270.304 185.561 269.64 185.561 268.981 185.561C268.955 181.553 269.011 177.543 268.938 173.542C267.801 176.78 266.55 179.97 265.344 183.181C265.001 183.191 264.312 183.202 263.962 183.208C262.784 180.043 261.537 176.899 260.321 173.745C260.347 177.684 260.321 181.626 260.321 185.565H258.347C258.343 179.993 258.344 174.428 258.349 168.869Z" fill="#333333"/>
<path d="M301.237 169.072H303.252V170.997C302.582 170.997 301.912 170.997 301.248 170.997C301.242 170.353 301.242 169.711 301.237 169.072Z" fill="#333333"/>
<path d="M294.921 170.248H296.801C296.801 171.394 296.801 172.539 296.801 173.685H298.935C298.935 174.262 298.935 174.84 298.935 175.417C298.218 175.417 297.501 175.417 296.801 175.428C296.822 177.879 296.728 180.332 296.833 182.783C296.888 183.908 298.113 183.73 298.916 183.814C298.916 184.271 298.941 185.189 298.952 185.653C297.458 185.719 295.356 185.614 295.051 183.762C294.722 180.997 295.008 178.202 294.889 175.421C294.577 175.421 293.95 175.411 293.638 175.411C293.638 174.983 293.638 174.128 293.638 173.7C293.954 173.7 294.584 173.685 294.895 173.685C294.915 172.545 294.915 171.394 294.921 170.248Z" fill="#333333"/>
<path d="M273.707 176.027C274.642 172.799 279.992 172.523 281.223 175.652C281.925 177.134 281.701 178.826 281.733 180.419C279.546 180.419 277.354 180.419 275.167 180.419C275.193 181.44 275.188 182.693 276.082 183.386C277.322 184.318 279.266 183.938 279.923 182.485C280.515 182.667 281.112 182.855 281.71 183.052C280.643 186.78 274.49 186.572 273.564 182.877C273.105 180.655 273.033 178.212 273.707 176.027ZM275.163 178.734C276.728 178.744 278.3 178.744 279.879 178.734C280.143 177.141 279.285 174.825 277.292 175.293C275.54 175.272 275.079 177.348 275.163 178.734Z" fill="#333333"/>
<path d="M307.927 174.974C308.92 173.794 310.518 173.097 312.046 173.591C313.766 173.991 314.378 175.943 314.414 177.515C314.429 180.191 314.404 182.862 314.414 185.552H312.409C312.366 182.74 312.477 179.93 312.372 177.124C312.221 174.932 308.787 174.609 308.045 176.587C307.853 179.581 308.025 182.575 307.961 185.552C307.266 185.552 306.57 185.552 305.879 185.552C305.879 181.596 305.879 177.641 305.879 173.689H307.978C307.964 174.012 307.938 174.651 307.927 174.974Z" fill="#333333"/>
<path d="M318.051 174.157C319.562 172.96 321.843 173.435 323.053 174.844V173.689C323.708 173.689 324.372 173.689 325.033 173.689C325.001 178.206 325.106 182.736 324.99 187.248C324.363 191.194 317.793 191.695 316.794 187.723C317.406 187.477 318.025 187.233 318.644 186.99C318.774 187.285 319.043 187.883 319.173 188.181C319.995 188.645 321.032 188.998 321.911 188.431C323.494 187.759 322.933 185.749 323.063 184.412C321.783 185.909 319.246 186.318 317.808 184.84C316.493 183.461 316.741 181.403 316.685 179.66C316.721 177.776 316.502 175.526 318.051 174.157ZM319.53 175.616C318.019 177.402 318.663 180.077 318.736 182.231C318.887 184.37 322.253 184.705 322.918 182.746C323.172 180.852 323.031 178.916 323.006 177.006C322.97 175.325 320.731 174.658 319.53 175.616Z" fill="#333333"/>
<path d="M284.102 176.147C284.87 173.345 288.796 172.673 290.839 174.408C292.396 175.99 292.281 178.369 292.226 180.426C290.017 180.426 287.811 180.415 285.61 180.426C285.621 181.457 285.668 182.665 286.534 183.384C287.761 184.288 289.714 183.972 290.376 182.509L292.106 182.937C291.306 186.9 284.736 186.534 283.987 182.723C283.639 180.571 283.566 178.281 284.102 176.147ZM285.596 178.734C287.164 178.734 288.737 178.734 290.305 178.734C290.25 177.723 290.395 176.469 289.533 175.74C288.892 175.099 287.939 175.255 287.132 175.359C285.83 175.918 285.561 177.464 285.598 178.734H285.596Z" fill="#333333"/>
<path d="M301.242 173.685C301.912 173.685 302.577 173.685 303.252 173.685C303.252 177.637 303.252 181.591 303.252 185.548C302.582 185.548 301.916 185.548 301.252 185.548C301.24 181.596 301.236 177.641 301.242 173.685Z" fill="#333333"/>
<path d="M338.656 107.328C339.326 107.338 340.001 107.347 340.681 107.354C340.649 109.384 340.645 111.417 340.624 113.445C341.631 112.277 343.238 111.492 344.774 112.038C346.321 112.397 347.07 114.069 347.122 115.536C347.198 118.368 347.122 121.206 347.147 124.042H345.203C345.167 121.242 345.278 118.437 345.163 115.641C345.054 113.408 341.371 113.038 340.799 115.119C340.41 118.077 340.722 121.071 340.799 124.038C340.082 124.038 339.369 124.038 338.652 124.038C338.656 118.473 338.645 112.897 338.656 107.328Z" fill="#343434"/>
<path d="M232.13 180.672C227.377 185.163 219.815 185.435 214.128 182.671C208.488 179.714 206.061 173.107 205.76 167.059C208.435 167.059 211.112 167.059 213.79 167.059C214.132 170.13 214.857 173.405 217.235 175.575C219.898 177.372 223.732 177.477 226.287 175.434C228.105 173.879 228.848 171.441 229.18 169.147C229.471 164.692 229.673 159.687 226.671 156.013C224.121 153.297 220.199 153.44 216.776 153.511C216.776 151.023 216.776 148.54 216.793 146.057C219.618 145.989 222.817 146.485 225.233 144.65C227.913 142.642 228.459 139.034 228.634 135.905C228.848 131.985 227.949 127.425 224.407 125.167C222.049 124.35 219.202 124.459 217.282 126.236C215.058 128.189 214.627 131.301 214.33 134.087C211.682 134.07 209.027 134.087 206.377 134.062C206.467 129.784 207.546 125.293 210.534 122.098C215.203 116.685 223.852 115.81 229.829 119.484C233.715 122 236.047 126.439 236.602 130.973C237.242 134.966 236.925 139.184 235.392 142.95C234.255 145.756 232.063 147.995 229.543 149.603C230.239 150.057 230.935 150.513 231.632 150.972C235.928 154.24 237.663 159.848 237.607 165.087C237.802 170.665 236.327 176.73 232.13 180.672Z" fill="url(#paint1_linear_1_496)"/>
<path d="M260.946 130.481C263.891 129.025 267.803 129.254 270.321 131.472C272.555 133.647 272.685 137.004 272.57 139.926C270.925 139.926 269.273 139.926 267.626 139.926C267.6 138.521 267.803 137.011 267.064 135.74C266.243 134.03 263.309 134.169 262.66 135.954C262.314 136.751 262.152 137.616 262.186 138.484C262.203 143.517 262.186 148.536 262.186 153.579C262.154 154.959 262.429 156.573 263.661 157.401C264.762 157.771 266.145 157.703 266.913 156.719C267.766 155.412 267.619 153.789 267.623 152.304C269.267 152.304 270.912 152.301 272.559 152.294C272.704 155.397 272.476 159.118 269.76 161.139C267.054 163.075 263.099 163.086 260.31 161.304C258.311 159.967 257.366 157.506 257.261 155.172C257.261 149.263 257.278 143.356 257.261 137.447C257.259 134.735 258.409 131.758 260.946 130.481Z" fill="#01A6B6"/>
<path d="M343.916 129.936C345.241 129.905 346.571 129.905 347.907 129.936C350.337 140.7 352.96 151.425 355.427 162.185C353.739 162.215 352.051 162.211 350.363 162.207C349.957 160.222 349.605 158.229 349.189 156.25C346.983 156.265 344.774 156.152 342.574 156.265C342.205 158.25 341.851 160.237 341.405 162.211C339.71 162.211 338.018 162.211 336.33 162.211C338.906 151.462 341.392 140.696 343.916 129.936ZM343.489 151.47C345.076 151.562 346.666 151.567 348.252 151.488C347.535 147.401 346.714 143.331 345.888 139.265C345.047 143.324 344.311 147.405 343.492 151.47H343.489Z" fill="#01A6B6"/>
<path d="M365.659 130.086C367.296 130.086 368.926 130.086 370.567 130.086C370.589 131.726 370.593 133.36 370.567 135.005C368.931 135.005 367.295 135.005 365.659 135.005C365.628 133.361 365.628 131.721 365.659 130.086Z" fill="#01A6B6"/>
<path d="M429.231 141.992C430.619 140.123 432.68 138.739 435.064 138.703C435.106 140.414 435.112 142.125 435.081 143.835C433.587 143.904 431.88 143.795 430.712 144.883C429.631 145.715 429.185 147.105 429.231 148.434C429.206 153.03 429.253 157.63 429.206 162.217C427.558 162.217 425.911 162.217 424.27 162.217C424.244 154.533 424.27 146.851 424.27 139.171C425.915 139.141 427.569 139.135 429.225 139.171C429.225 140.101 429.225 141.044 429.231 141.992Z" fill="#01A6B6"/>
<path d="M283.737 146.293C283.523 143.45 284.953 140.322 287.706 139.248C290.822 138.14 295.077 138.707 296.775 141.872C298.504 145.136 297.471 148.962 297.75 152.482C294.667 152.529 291.585 152.497 288.5 152.501C288.589 154.313 287.83 156.875 289.84 157.906C290.233 158.073 290.663 158.134 291.087 158.083C291.511 158.031 291.914 157.87 292.256 157.614C292.598 157.358 292.867 157.017 293.037 156.624C293.206 156.231 293.27 155.801 293.222 155.376C294.78 155.427 296.344 155.444 297.902 155.438C297.829 157.26 297.586 159.264 296.218 160.618C292.629 164.183 284.975 162.929 283.899 157.546C283.545 153.814 283.841 150.04 283.737 146.293ZM288.485 148.628C289.959 148.628 291.436 148.628 292.911 148.628C292.911 146.703 293.512 143.442 290.796 143.155C287.981 143.215 288.427 146.682 288.485 148.628Z" fill="#01A6B6"/>
<path d="M303.461 139.712C307.302 137.473 313.813 138.936 314.378 143.989C314.487 150.055 314.4 156.135 314.415 162.204C312.85 162.22 311.295 162.22 309.75 162.204C309.75 161.745 309.765 160.825 309.771 160.361C307.829 163.875 301.726 163.141 300.644 159.272C299.761 156.212 299.887 152.381 302.266 150.008C304.287 148.168 307.189 148.297 309.735 148.258C309.688 146.513 310.292 143.619 307.912 143.192C306.419 142.704 305.428 144.25 305.279 145.544C303.747 145.544 302.219 145.559 300.693 145.57C300.535 143.314 301.459 140.893 303.461 139.712ZM305.168 157.395C306.005 158.708 308.156 158.464 309.148 157.463C310.068 155.966 309.677 154.112 309.724 152.45C308.804 152.45 307.885 152.399 306.976 152.523C304.889 153.008 304.472 155.677 305.168 157.395Z" fill="#01A6B6"/>
<path d="M373.094 144.293C373.13 141.748 374.713 138.78 377.575 138.75C379.538 138.484 381.023 139.952 382.27 141.237C382.27 140.717 382.285 139.669 382.291 139.145C383.921 139.135 385.558 139.145 387.199 139.171C387.169 147.978 387.199 156.791 387.184 165.601C387.257 168.24 385.315 170.665 382.769 171.264C380.14 171.805 376.935 171.826 374.916 169.767C373.373 168.34 373.092 166.112 373.171 164.129C374.754 164.101 376.339 164.097 377.927 164.093C378.172 165.008 377.995 166.272 378.994 166.773C380.102 167.367 382.048 167.106 382.195 165.581C382.445 163.68 382.231 161.76 382.293 159.85C381.151 162.035 378.452 163.338 376.117 162.296C373.915 161.441 373.111 158.892 373.089 156.721C373.047 152.585 373.019 148.436 373.094 144.293ZM379.263 143.397C378.1 143.825 377.912 145.251 377.861 146.329C377.81 148.583 377.876 150.837 377.84 153.096C377.861 154.522 377.709 156.058 378.39 157.373C379.295 158.455 381.243 158.383 381.943 157.117C382.443 155.833 382.265 154.437 382.291 153.098C382.233 150.491 382.385 147.873 382.229 145.27C382.197 143.818 380.577 142.732 379.263 143.397Z" fill="#01A6B6"/>
<path d="M408.814 141.299C411.801 137.203 419.727 138.02 421.103 143.183C421.893 146.209 421.3 149.385 421.502 152.486C418.395 152.512 415.29 152.508 412.183 152.501C412.303 154.084 411.742 155.923 412.792 157.286C413.758 158.468 415.551 158.171 416.594 157.256C416.697 156.631 416.808 156.007 416.917 155.38C418.474 155.427 420.038 155.438 421.611 155.433C421.746 157.906 420.79 160.654 418.41 161.768C415.357 163.195 411.123 162.904 408.874 160.175C406.853 157.572 407.493 154.09 407.395 151.03C407.51 147.775 406.866 144.158 408.814 141.299ZM412.74 144.079C411.868 145.427 412.241 147.103 412.179 148.613C413.701 148.629 415.225 148.629 416.75 148.613C416.688 147.193 416.946 145.673 416.377 144.336C415.762 142.924 413.534 142.773 412.74 144.086V144.079Z" fill="#01A6B6"/>
<path d="M356.824 129.915C358.455 129.915 360.091 129.918 361.733 129.925C361.744 137.639 361.744 145.355 361.733 153.074C361.786 154.537 361.447 156.167 362.439 157.401C363.062 157.422 363.691 157.452 364.321 157.489C364.321 159.061 364.321 160.628 364.321 162.207C362.4 162.207 360.217 162.45 358.679 161.05C357.11 159.766 356.788 157.615 356.82 155.703C356.814 147.11 356.784 138.51 356.824 129.915Z" fill="#01A5B5"/>
<path d="M275.007 129.925C276.669 129.925 278.332 129.925 279.992 129.925C280.035 138.66 279.926 147.405 280.045 156.141C280.045 157.39 281.524 157.478 282.454 157.489C282.47 159.057 282.47 160.629 282.454 162.204C280.835 162.153 279.074 162.403 277.615 161.533C275.732 160.513 275.026 158.229 275.007 156.214C275.011 147.455 275.011 138.693 275.007 129.925Z" fill="#00A6B6"/>
<path d="M317.566 139.16C319.214 139.139 320.861 139.139 322.513 139.16C322.529 140.158 322.541 141.165 322.549 142.18C323.17 141.167 324.029 140.321 325.051 139.716C326.074 139.112 327.228 138.768 328.413 138.713C328.429 140.424 328.429 142.129 328.413 143.829C327.052 143.912 325.547 143.773 324.382 144.62C323.142 145.407 322.56 146.917 322.534 148.344C322.451 152.972 322.607 157.604 322.462 162.232C320.825 162.217 319.188 162.217 317.554 162.207C317.558 154.516 317.541 146.838 317.566 139.16Z" fill="#00A6B6"/>
<path d="M395.391 141.611C396.672 139.045 400.114 137.839 402.585 139.462C404.292 140.627 404.719 142.826 404.794 144.761C404.794 150.57 404.794 156.385 404.794 162.196C403.125 162.211 401.465 162.226 399.802 162.179C399.802 156.886 399.802 151.594 399.802 146.301C399.819 145.354 399.646 144.334 398.949 143.637C397.568 142.798 395.344 143.48 395.417 145.318C395.308 150.94 395.417 156.573 395.37 162.2C393.714 162.2 392.052 162.2 390.394 162.2C390.368 154.52 390.394 146.838 390.394 139.158C392.054 139.128 393.716 139.128 395.385 139.158C395.381 139.973 395.387 140.79 395.391 141.611Z" fill="#00A6B6"/>
<path d="M365.651 139.145C367.296 139.135 368.943 139.135 370.588 139.16C370.563 146.845 370.606 154.527 370.563 162.211C368.926 162.211 367.285 162.211 365.655 162.211C365.646 154.523 365.645 146.835 365.651 139.145Z" fill="#01A5B4"/>
<defs>
<linearGradient id="paint0_linear_1_496" x1="160.177" y1="97.4347" x2="325.022" y2="97.4347" gradientUnits="userSpaceOnUse">
<stop stop-color="#04CEB1"/>
<stop offset="1" stop-color="#01A8B4"/>
</linearGradient>
<linearGradient id="paint1_linear_1_496" x1="205.76" y1="150.863" x2="237.631" y2="150.863" gradientUnits="userSpaceOnUse">
<stop stop-color="#04CEB1"/>
<stop offset="1" stop-color="#01A8B4"/>
</linearGradient>
</defs>
</svg>
