<svg width="607" height="121" viewBox="0 0 607 121" fill="none" xmlns="http://www.w3.org/2000/svg">
<path d="M152.347 99.699L155.825 98.0882C156.089 99.1852 156.731 100.154 157.638 100.825C158.633 101.487 159.812 101.817 161.006 101.767C162.136 101.826 163.244 101.438 164.091 100.687C164.475 100.314 164.776 99.8627 164.973 99.3641C165.17 98.8655 165.259 98.3307 165.235 97.7951C165.235 96.2211 163.929 94.8176 161.317 93.5846C160.951 93.4016 160.67 93.2674 160.475 93.1818C157.522 91.7421 155.554 90.4394 154.572 89.2738C153.577 88.0754 153.054 86.556 153.098 84.9995C153.062 84.0063 153.242 83.0171 153.626 82.1004C154.01 81.1837 154.589 80.3616 155.322 79.6909C156.932 78.2896 159.02 77.5619 161.152 77.6588C162.878 77.5988 164.589 77.9934 166.113 78.8029C167.407 79.522 168.39 80.6916 168.877 82.0889L165.473 83.8461C165.032 83.1036 164.428 82.4713 163.706 81.9972C163.04 81.5999 162.276 81.397 161.501 81.4115C160.488 81.3575 159.493 81.684 158.709 82.3267C158.366 82.6337 158.095 83.0129 157.916 83.437C157.737 83.8612 157.655 84.3198 157.675 84.7797C157.675 86.3905 159.188 87.8915 162.215 89.2827C162.446 89.3928 162.629 89.4783 162.764 89.5392C165.411 90.7597 167.23 91.9526 168.219 93.1179C169.228 94.3438 169.756 95.8963 169.701 97.4836C169.701 100.022 168.902 102.039 167.303 103.534C165.705 105.028 163.545 105.776 160.823 105.776C158.833 105.861 156.868 105.309 155.213 104.202C153.728 103.112 152.705 101.506 152.347 99.699Z" fill="#329FD8"/>
<path d="M190.947 105.062H186.975V102.811C186.354 103.755 185.501 104.523 184.497 105.042C183.494 105.562 182.374 105.814 181.245 105.776C180.151 105.828 179.06 105.627 178.056 105.191C177.051 104.755 176.16 104.094 175.451 103.259C174.042 101.582 173.337 99.2843 173.337 96.3674C173.337 93.5974 174.057 91.3611 175.497 89.6586C176.633 88.3839 178.164 87.527 179.845 87.225C181.526 86.923 183.26 87.1933 184.769 87.9926C185.767 88.5751 186.543 89.4736 186.974 90.5462V87.7088H190.947L190.947 105.062ZM187.084 96.331C187.176 94.8293 186.732 93.3438 185.83 92.139C185.4 91.6371 184.86 91.2407 184.253 90.9805C183.645 90.7202 182.985 90.603 182.325 90.6379C181.656 90.6066 180.988 90.7298 180.374 90.998C179.759 91.2663 179.215 91.6724 178.783 92.1848C177.858 93.4177 177.401 94.9389 177.493 96.4774C177.493 98.3202 177.907 99.7419 178.737 100.743C179.187 101.227 179.734 101.611 180.342 101.869C180.95 102.128 181.606 102.255 182.267 102.243C182.927 102.231 183.578 102.08 184.177 101.799C184.775 101.519 185.307 101.115 185.739 100.615C186.681 99.3914 187.158 97.8732 187.084 96.331Z" fill="#329FD8"/>
<path d="M200.77 87.7088V97.4839C200.77 99.1681 201.118 100.376 201.814 101.109C202.509 101.841 203.638 102.207 205.2 102.207C206.762 102.207 207.891 101.841 208.587 101.109C209.282 100.376 209.63 99.1681 209.63 97.4839V87.7088H213.602V96.2942C213.602 99.6136 212.937 102.024 211.607 103.525C210.277 105.026 208.153 105.776 205.237 105.776C202.271 105.776 200.123 105.032 198.793 103.543C197.463 102.054 196.798 99.6381 196.798 96.2942V87.7088H200.77Z" fill="#329FD8"/>
<path d="M231.809 76.6888H235.781V105.062H231.809V102.811C231.188 103.755 230.335 104.523 229.332 105.042C228.329 105.562 227.209 105.814 226.079 105.776C224.986 105.828 223.895 105.627 222.89 105.191C221.886 104.755 220.995 104.094 220.286 103.259C218.876 101.582 218.171 99.2843 218.171 96.3674C218.171 93.5974 218.891 91.3611 220.331 89.6586C221.468 88.3839 222.999 87.527 224.68 87.225C226.36 86.923 228.094 87.1933 229.603 87.9926C230.602 88.5751 231.378 89.4736 231.809 90.5462L231.809 76.6888ZM231.919 96.3308C232.01 94.8291 231.566 93.3436 230.665 92.1387C230.235 91.6369 229.695 91.2405 229.087 90.9803C228.479 90.72 227.82 90.6028 227.16 90.6377C226.49 90.6063 225.822 90.7295 225.208 90.9978C224.594 91.2661 224.05 91.6721 223.618 92.1846C222.693 93.4175 222.235 94.9386 222.327 96.4772C222.327 98.3199 222.742 99.7417 223.572 100.742C224.022 101.226 224.57 101.61 225.178 101.868C225.787 102.127 226.443 102.254 227.104 102.243C227.765 102.232 228.416 102.082 229.015 101.803C229.615 101.524 230.149 101.122 230.583 100.623C231.522 99.3958 231.995 97.8748 231.919 96.331V96.3308Z" fill="#329FD8"/>
<path d="M241.413 80.2037C241.41 79.8784 241.474 79.556 241.602 79.2568C241.729 78.9575 241.917 78.6878 242.154 78.4646C242.384 78.2294 242.658 78.0432 242.962 77.9173C243.266 77.7915 243.592 77.7286 243.92 77.7325C244.247 77.724 244.572 77.782 244.876 77.9032C245.18 78.0244 245.456 78.2061 245.687 78.4373C245.918 78.6685 246.1 78.9443 246.221 79.248C246.342 79.5517 246.4 79.8769 246.392 80.2037C246.4 80.534 246.34 80.8625 246.218 81.1693C246.095 81.4761 245.911 81.7548 245.678 81.9885C245.451 82.2237 245.177 82.4093 244.875 82.5337C244.572 82.6581 244.247 82.7187 243.92 82.7115C243.257 82.7053 242.623 82.4391 242.154 81.9702C241.685 81.5012 241.419 80.8669 241.413 80.2037ZM241.944 105.062V87.7086H245.916V105.062H241.944Z" fill="#329FD8"/>
<path d="M291.684 91.7177C291.698 93.5725 291.333 95.4106 290.613 97.1197C289.892 98.8288 288.83 100.373 287.492 101.658C286.146 102.966 284.562 104.004 282.824 104.714C281.093 105.422 279.24 105.783 277.369 105.776C275.477 105.783 273.602 105.42 271.85 104.706C270.118 104.004 268.541 102.969 267.21 101.658C265.877 100.377 264.818 98.8388 264.098 97.1364C263.007 94.5551 262.721 91.7049 263.276 88.9583C263.832 86.2118 265.203 83.6966 267.21 81.7414C268.544 80.4322 270.124 79.3995 271.859 78.7028C275.391 77.3112 279.32 77.3112 282.852 78.7028C284.583 79.4013 286.16 80.4338 287.492 81.7414C288.826 83.0477 289.887 84.6064 290.613 86.3267C291.328 88.0337 291.692 89.867 291.684 91.7177ZM287.145 91.7177C287.151 90.3944 286.899 89.0825 286.403 87.8555C285.912 86.6404 285.188 85.5333 284.271 84.597C283.379 83.6664 282.307 82.9269 281.121 82.4234C279.934 81.9199 278.658 81.663 277.369 81.6682C275.417 81.6809 273.513 82.2744 271.899 83.3729C270.286 84.4715 269.036 86.0255 268.308 87.8369C267.817 89.0715 267.569 90.3891 267.576 91.7177C267.569 93.0344 267.817 94.34 268.308 95.5618C268.796 96.7707 269.518 97.8717 270.431 98.802C271.328 99.7358 272.406 100.477 273.599 100.981C274.791 101.484 276.074 101.739 277.369 101.731C278.649 101.736 279.916 101.481 281.094 100.98C282.286 100.47 283.365 99.73 284.27 98.802C286.123 96.911 287.156 94.3654 287.144 91.7177H287.145Z" fill="#329FD8"/>
<path d="M300.812 90.4731C301.13 89.4849 301.717 88.6043 302.505 87.9287C303.255 87.3637 304.175 87.0729 305.114 87.1049C305.672 87.1045 306.228 87.1721 306.77 87.3061C307.323 87.4442 307.86 87.6406 308.372 87.8921L306.944 91.2603C306.608 91.0191 306.234 90.8365 305.837 90.7202C305.405 90.5995 304.958 90.541 304.51 90.5462C303.934 90.5071 303.36 90.6358 302.856 90.9169C302.352 91.1981 301.941 91.6194 301.672 92.1297C301.099 93.1853 300.812 94.9578 300.812 97.4473V105.062H296.84V87.6723H300.812L300.812 90.4731Z" fill="#329FD8"/>
<path d="M312.063 105.062V91.1867H309.024V87.7088H312.063V81.1372H316.035V87.7088H319.074V91.1867H316.035V105.062L312.063 105.062Z" fill="#329FD8"/>
<path d="M322.984 105.062V76.6888H326.718V90.5462C327.409 89.4454 328.374 88.5433 329.519 87.9287C330.741 87.3471 332.084 87.0647 333.437 87.1048C334.569 87.0739 335.695 87.2829 336.741 87.7182C337.617 88.0991 338.36 88.7334 338.873 89.5395C339.192 90.0502 339.415 90.6146 339.532 91.2051C339.699 92.3074 339.767 93.4224 339.734 94.5368V105.062H335.725V96.1477C335.725 93.8658 335.447 92.3495 334.892 91.5987C334.337 90.8479 333.352 90.4727 331.936 90.4729C331.081 90.4576 330.234 90.6327 329.456 90.9854C328.762 91.2995 328.17 91.8002 327.744 92.4315C327.425 92.9141 327.216 93.4609 327.131 94.0333C326.991 95.0675 326.933 96.1111 326.957 97.1544V105.062L322.984 105.062Z" fill="#329FD8"/>
<path d="M344.23 96.4039C344.223 95.1681 344.469 93.944 344.953 92.8069C345.437 91.6745 346.144 90.6507 347.031 89.7959C347.914 88.9342 348.959 88.256 350.106 87.8003C352.462 86.873 355.081 86.873 357.437 87.8003C358.598 88.2694 359.653 88.9666 360.54 89.8507C361.431 90.7071 362.141 91.7343 362.627 92.8711C363.101 93.9881 363.344 95.19 363.34 96.4037C363.349 97.6409 363.11 98.8672 362.636 100.01C362.163 101.136 361.462 102.152 360.577 102.994C359.664 103.883 358.589 104.589 357.41 105.071C355.072 106.011 352.462 106.011 350.124 105.071C347.802 104.117 345.943 102.295 344.944 99.9917C344.465 98.8564 344.223 97.6358 344.23 96.4039ZM359.149 96.4406C359.185 94.9258 358.627 93.457 357.593 92.3493C357.11 91.8214 356.522 91.3999 355.868 91.1115C355.213 90.8231 354.505 90.6742 353.79 90.6742C353.074 90.6742 352.367 90.8231 351.712 91.1115C351.057 91.3999 350.469 91.8214 349.987 92.3493C348.979 93.4738 348.422 94.9306 348.422 96.4406C348.422 97.9505 348.979 99.4073 349.987 100.532C350.469 101.06 351.055 101.481 351.709 101.77C352.363 102.058 353.07 102.207 353.785 102.207C354.5 102.207 355.207 102.058 355.861 101.77C356.515 101.481 357.101 101.06 357.583 100.532C358.623 99.4268 359.185 97.957 359.149 96.4406Z" fill="#329FD8"/>
<path d="M380.394 76.6888H384.367V105.062H380.394V102.811C379.774 103.755 378.921 104.523 377.917 105.042C376.914 105.562 375.794 105.814 374.665 105.776C373.571 105.828 372.48 105.627 371.476 105.191C370.471 104.755 369.58 104.094 368.871 103.259C367.462 101.582 366.757 99.2843 366.757 96.3674C366.757 93.5974 367.477 91.3611 368.917 89.6586C370.053 88.3839 371.584 87.527 373.265 87.225C374.946 86.923 376.679 87.1933 378.188 87.9926C379.187 88.5751 379.963 89.4736 380.394 90.5462L380.394 76.6888ZM380.504 96.3308C380.596 94.8291 380.151 93.3436 379.25 92.1387C378.82 91.6368 378.28 91.2405 377.672 90.9802C377.065 90.72 376.405 90.6028 375.745 90.6377C375.075 90.6063 374.408 90.7295 373.793 90.9978C373.179 91.266 372.635 91.6722 372.203 92.1846C371.278 93.4175 370.821 94.9386 370.912 96.4772C370.912 98.3199 371.327 99.7417 372.157 100.742C372.608 101.226 373.155 101.61 373.763 101.868C374.372 102.127 375.028 102.254 375.689 102.243C376.35 102.232 377.001 102.082 377.601 101.803C378.2 101.524 378.734 101.122 379.168 100.623C380.107 99.3958 380.581 97.8748 380.504 96.331V96.3308Z" fill="#329FD8"/>
<path d="M389.065 96.4039C389.058 95.1682 389.304 93.944 389.788 92.8069C390.272 91.6745 390.979 90.6507 391.866 89.7959C392.749 88.9342 393.794 88.256 394.941 87.8003C397.297 86.873 399.916 86.873 402.272 87.8003C403.433 88.2694 404.488 88.9666 405.375 89.8507C406.266 90.7071 406.976 91.7343 407.462 92.8711C407.936 93.9881 408.179 95.19 408.175 96.4037C408.184 97.6409 407.944 98.8672 407.471 100.01C406.998 101.136 406.297 102.153 405.411 102.994C404.499 103.883 403.424 104.589 402.244 105.071C399.907 106.011 397.297 106.011 394.959 105.071C392.637 104.117 390.778 102.295 389.779 99.9917C389.3 98.8564 389.057 97.6359 389.065 96.4039ZM403.984 96.4406C404.02 94.9258 403.462 93.457 402.428 92.3493C401.945 91.8214 401.357 91.3999 400.703 91.1115C400.048 90.8231 399.34 90.6742 398.625 90.6742C397.909 90.6742 397.202 90.8231 396.547 91.1115C395.892 91.3999 395.304 91.8214 394.821 92.3493C393.814 93.4738 393.257 94.9306 393.257 96.4406C393.257 97.9505 393.814 99.4073 394.821 100.532C395.303 101.06 395.89 101.481 396.544 101.77C397.198 102.058 397.905 102.207 398.62 102.207C399.335 102.207 400.042 102.058 400.696 101.77C401.35 101.481 401.936 101.06 402.418 100.532C403.458 99.4268 404.02 97.9571 403.984 96.4406Z" fill="#329FD8"/>
<path d="M412.873 105.062V87.7086H416.607V90.546C417.298 89.4452 418.263 88.5431 419.408 87.9285C420.63 87.3469 421.973 87.0645 423.326 87.1046C424.458 87.0737 425.584 87.2827 426.63 87.718C427.506 88.0989 428.249 88.7332 428.762 89.5393C429.081 90.05 429.304 90.6144 429.421 91.2049C429.588 92.3072 429.656 93.4222 429.623 94.5366V105.062H425.614V96.1475C425.614 93.8656 425.336 92.3493 424.781 91.5985C424.226 90.8477 423.241 90.4725 421.825 90.4727C420.97 90.4575 420.123 90.6325 419.345 90.9852C418.651 91.2993 418.059 91.8 417.633 92.4313C417.314 92.9139 417.104 93.4607 417.02 94.0331C416.88 95.0673 416.822 96.1109 416.846 97.1542V105.062L412.873 105.062Z" fill="#329FD8"/>
<path d="M436.334 105.062V91.1867H433.295V87.7088H436.334V81.1372H440.306V87.7088H443.345V91.1867H440.306V105.062L436.334 105.062Z" fill="#329FD8"/>
<path d="M446.908 80.2037C446.905 79.8784 446.969 79.556 447.097 79.2568C447.224 78.9575 447.412 78.6878 447.649 78.4646C447.878 78.2294 448.153 78.0432 448.457 77.9173C448.761 77.7915 449.087 77.7286 449.415 77.7325C449.742 77.724 450.067 77.782 450.371 77.9032C450.675 78.0244 450.95 78.2061 451.182 78.4373C451.413 78.6685 451.595 78.9443 451.716 79.248C451.837 79.5517 451.895 79.8769 451.886 80.2037C451.894 80.534 451.835 80.8625 451.713 81.1693C451.59 81.4761 451.406 81.7548 451.173 81.9885C450.945 82.2237 450.672 82.4093 450.37 82.5337C450.067 82.6581 449.742 82.7187 449.415 82.7115C448.752 82.7054 448.118 82.4392 447.649 81.9702C447.18 81.5012 446.914 80.8669 446.907 80.2037H446.908ZM447.438 105.062V87.7086H451.41V105.062H447.438Z" fill="#329FD8"/>
<path d="M470.533 92.6512C469.94 91.9926 469.213 91.4684 468.4 91.1136C467.571 90.7562 466.677 90.5754 465.774 90.5828C465.049 90.5511 464.326 90.6752 463.653 90.9468C462.981 91.2183 462.374 91.631 461.875 92.1569C460.925 93.3569 460.409 94.8429 460.41 96.3734C460.412 97.9038 460.931 99.3887 461.884 100.587C462.416 101.115 463.054 101.526 463.756 101.793C464.457 102.059 465.207 102.176 465.957 102.134C466.847 102.149 467.729 101.965 468.538 101.593C469.322 101.211 470.005 100.65 470.533 99.955V104.532C469.795 104.949 469.004 105.263 468.181 105.465C467.309 105.677 466.415 105.781 465.517 105.776C464.289 105.823 463.065 105.616 461.92 105.169C460.775 104.722 459.735 104.044 458.863 103.177C458.002 102.286 457.329 101.23 456.887 100.072C456.445 98.9144 456.243 97.6789 456.291 96.4405C456.239 95.1897 456.449 93.9417 456.908 92.7769C457.366 91.612 458.064 90.556 458.955 89.6767C460.731 87.9623 463.052 87.105 465.92 87.1048C466.757 87.0977 467.593 87.1867 468.41 87.3702C469.152 87.5417 469.866 87.816 470.533 88.1849L470.533 92.6512Z" fill="#329FD8"/>
<path d="M485.676 99.699L489.154 98.0882C489.417 99.1852 490.059 100.154 490.966 100.825C491.961 101.487 493.14 101.817 494.334 101.767C495.464 101.826 496.572 101.438 497.419 100.687C497.803 100.314 498.104 99.8627 498.301 99.3641C498.499 98.8655 498.588 98.3307 498.563 97.7951C498.563 96.2211 497.257 94.8176 494.646 93.5846C494.28 93.4016 493.999 93.2674 493.804 93.1818C490.85 91.7421 488.882 90.4394 487.9 89.2738C486.906 88.0754 486.382 86.556 486.427 84.9995C486.39 84.0063 486.57 83.0171 486.954 82.1004C487.338 81.1837 487.917 80.3615 488.651 79.6909C490.261 78.2896 492.349 77.5619 494.481 77.6588C496.206 77.5988 497.917 77.9934 499.442 78.8029C500.735 79.522 501.719 80.6916 502.206 82.0889L498.801 83.8461C498.36 83.1036 497.756 82.4713 497.035 81.9972C496.369 81.5999 495.604 81.397 494.829 81.4115C493.817 81.3575 492.821 81.684 492.037 82.3267C491.694 82.6337 491.424 83.0129 491.245 83.437C491.066 83.8612 490.983 84.3198 491.003 84.7797C491.003 86.3905 492.516 87.8915 495.543 89.2827C495.774 89.3928 495.957 89.4783 496.092 89.5392C498.74 90.7597 500.558 91.9526 501.547 93.1179C502.557 94.3438 503.084 95.8963 503.03 97.4836C503.03 100.022 502.23 102.039 500.632 103.534C499.033 105.028 496.873 105.776 494.152 105.776C492.162 105.861 490.197 105.309 488.541 104.202C487.056 103.112 486.034 101.506 485.676 99.699Z" fill="#329FD8"/>
<path d="M506.665 96.4039C506.659 95.1682 506.905 93.944 507.389 92.8069C507.873 91.6745 508.579 90.6506 509.466 89.7959C510.35 88.9342 511.395 88.256 512.541 87.8003C514.897 86.873 517.517 86.873 519.873 87.8003C521.034 88.2694 522.089 88.9666 522.976 89.8507C523.867 90.7071 524.577 91.7343 525.062 92.8711C525.537 93.9881 525.78 95.19 525.776 96.4037C525.785 97.6409 525.545 98.8672 525.071 100.01C524.599 101.136 523.898 102.153 523.012 102.994C522.1 103.883 521.024 104.589 519.845 105.071C517.508 106.011 514.898 106.011 512.56 105.071C510.238 104.117 508.379 102.295 507.379 99.9917C506.901 98.8564 506.658 97.6359 506.665 96.4039ZM521.584 96.4406C521.621 94.9258 521.062 93.457 520.029 92.3493C519.546 91.8215 518.958 91.4 518.303 91.1116C517.649 90.8232 516.941 90.6743 516.225 90.6743C515.51 90.6743 514.802 90.8232 514.148 91.1116C513.493 91.4 512.905 91.8215 512.422 92.3493C511.415 93.4738 510.857 94.9306 510.857 96.4406C510.857 97.9505 511.415 99.4073 512.422 100.532C512.904 101.06 513.491 101.481 514.145 101.77C514.799 102.058 515.506 102.207 516.221 102.207C516.936 102.207 517.643 102.058 518.297 101.77C518.951 101.481 519.537 101.06 520.019 100.532C521.058 99.4268 521.621 97.957 521.584 96.4406Z" fill="#329FD8"/>
<path d="M543.434 92.6512C542.841 91.9926 542.114 91.4684 541.302 91.1136C540.472 90.7562 539.578 90.5754 538.675 90.5828C537.95 90.5511 537.227 90.6752 536.555 90.9468C535.882 91.2183 535.276 91.631 534.776 92.1569C533.826 93.3569 533.31 94.8429 533.311 96.3733C533.313 97.9038 533.832 99.3887 534.785 100.587C535.318 101.115 535.955 101.526 536.657 101.793C537.359 102.059 538.109 102.176 538.858 102.134C539.748 102.149 540.63 101.965 541.439 101.593C542.223 101.211 542.907 100.65 543.434 99.955V104.532C542.697 104.949 541.905 105.263 541.082 105.465C540.21 105.677 539.316 105.781 538.419 105.776C537.191 105.823 535.966 105.616 534.821 105.169C533.676 104.722 532.636 104.044 531.765 103.177C530.903 102.286 530.231 101.23 529.789 100.072C529.346 98.9144 529.144 97.6789 529.193 96.4405C529.14 95.1897 529.35 93.9417 529.809 92.7769C530.268 91.612 530.965 90.556 531.856 89.6767C533.632 87.9623 535.954 87.105 538.821 87.1048C539.659 87.0977 540.494 87.1867 541.311 87.3702C542.053 87.5417 542.768 87.816 543.434 88.1849L543.434 92.6512Z" fill="#329FD8"/>
<path d="M547.638 80.2037C547.635 79.8784 547.699 79.556 547.827 79.2568C547.954 78.9575 548.143 78.6878 548.379 78.4646C548.609 78.2294 548.884 78.0432 549.187 77.9173C549.491 77.7915 549.817 77.7286 550.145 77.7325C550.472 77.724 550.798 77.782 551.101 77.9032C551.405 78.0244 551.681 78.2061 551.912 78.4373C552.143 78.6685 552.325 78.9443 552.446 79.248C552.567 79.5517 552.625 79.8769 552.617 80.2037C552.625 80.534 552.566 80.8625 552.443 81.1693C552.32 81.4761 552.137 81.7548 551.903 81.9885C551.676 82.2237 551.402 82.4093 551.1 82.5337C550.797 82.6581 550.473 82.7187 550.146 82.7115C549.482 82.7053 548.848 82.4391 548.379 81.9702C547.91 81.5012 547.644 80.8669 547.638 80.2037ZM548.169 105.062V87.7086H552.141V105.062H548.169Z" fill="#329FD8"/>
<path d="M575.016 96.9713H561.14C561.15 98.3702 561.663 99.7189 562.586 100.77C563.035 101.228 563.575 101.586 564.171 101.821C564.767 102.056 565.406 102.162 566.046 102.134C567.169 102.175 568.28 101.895 569.25 101.328C570.209 100.672 570.979 99.7756 571.483 98.7287L574.833 100.596C573.993 102.195 572.742 103.542 571.208 104.495C569.666 105.376 567.913 105.819 566.138 105.776C563.355 105.776 561.14 104.928 559.493 103.232C557.845 101.536 557.021 99.272 557.022 96.4407C556.977 95.2085 557.181 93.98 557.619 92.8277C558.058 91.6754 558.723 90.6227 559.575 89.7318C560.426 88.8617 561.45 88.1787 562.58 87.7264C563.709 87.2741 564.921 87.0624 566.138 87.105C568.932 87.105 571.11 87.9043 572.673 89.503C574.235 91.1016 575.016 93.341 575.016 96.2211L575.016 96.9713ZM570.897 94.2989C570.813 93.1995 570.3 92.1772 569.469 91.4522C568.532 90.7535 567.378 90.4069 566.211 90.473C565.083 90.4174 563.97 90.7537 563.062 91.4249C562.202 92.1706 561.616 93.1821 561.397 94.2989H570.897Z" fill="#329FD8"/>
<path d="M580.574 105.062V91.1867H577.535V87.7088H580.574V81.1372H584.546V87.7088H587.585V91.1867H584.546V105.062L580.574 105.062Z" fill="#329FD8"/>
<path d="M594.479 113.227H590.397L595.156 103.561L588.786 87.7089H593.179L596.364 96.697C596.547 97.2462 596.709 97.8045 596.849 98.3719C596.99 98.9394 597.103 99.516 597.188 100.102C597.494 99.105 597.874 98.1321 598.323 97.1913L598.415 96.9712L602.698 87.7087H607L594.479 113.227Z" fill="#329FD8"/>
<path d="M127.543 25.0495H49.5216C44.5758 25.0495 40.5664 29.0588 40.5664 34.0047V112.027C40.5664 116.972 44.5758 120.982 49.5216 120.982H127.543C132.489 120.982 136.499 116.972 136.499 112.027V34.0047C136.499 29.0588 132.489 25.0495 127.543 25.0495Z" fill="#329FD8"/>
<path d="M123.362 46.2972C128.099 46.2972 131.939 42.4571 131.939 37.7201C131.939 32.983 128.099 29.1429 123.362 29.1429C118.625 29.1429 114.785 32.983 114.785 37.7201C114.785 42.4571 118.625 46.2972 123.362 46.2972Z" fill="#F7F6F5"/>
<path d="M119.897 66.4048C124.634 66.4048 128.474 62.5647 128.474 57.8277C128.474 53.0906 124.634 49.2505 119.897 49.2505C115.16 49.2505 111.32 53.0906 111.32 57.8277C111.32 62.5647 115.16 66.4048 119.897 66.4048Z" fill="#F7F6F5"/>
<path d="M112.072 86.6756C116.809 86.6756 120.649 82.8355 120.649 78.0984C120.649 73.3614 116.809 69.5213 112.072 69.5213C107.335 69.5213 103.495 73.3614 103.495 78.0984C103.495 82.8355 107.335 86.6756 112.072 86.6756Z" fill="#F7F6F5"/>
<path d="M98.671 102.271C103.408 102.271 107.248 98.4312 107.248 93.6942C107.248 88.9572 103.408 85.1171 98.671 85.1171C93.934 85.1171 90.0939 88.9572 90.0939 93.6942C90.0939 98.4312 93.934 102.271 98.671 102.271Z" fill="#F7F6F5"/>
<path d="M78.4955 114.791C83.2325 114.791 87.0725 110.951 87.0725 106.214C87.0725 101.477 83.2325 97.6367 78.4955 97.6367C73.7585 97.6367 69.9183 101.477 69.9183 106.214C69.9183 110.951 73.7585 114.791 78.4955 114.791Z" fill="#F7F6F5"/>
<path d="M56.7281 118.713C61.4651 118.713 65.3052 114.873 65.3052 110.136C65.3052 105.399 61.4651 101.559 56.7281 101.559C51.9911 101.559 48.1509 105.399 48.1509 110.136C48.1509 114.873 51.9911 118.713 56.7281 118.713Z" fill="#F7F6F5"/>
<path d="M86.9771 0.156433H8.95516C4.00935 0.156433 0 4.16578 0 9.11159V87.1335C0 92.0793 4.00935 96.0887 8.95516 96.0887H86.9771C91.9229 96.0887 95.9323 92.0793 95.9323 87.1335V9.11159C95.9323 4.16578 91.9229 0.156433 86.9771 0.156433Z" fill="#2463AF"/>
<path d="M82.5364 21.4041C87.2734 21.4041 91.1136 17.564 91.1136 12.827C91.1136 8.08997 87.2734 4.24988 82.5364 4.24988C77.7994 4.24988 73.9594 8.08997 73.9594 12.827C73.9594 17.564 77.7994 21.4041 82.5364 21.4041Z" fill="#F7F6F5"/>
<path d="M79.0712 41.5118C83.8082 41.5118 87.6483 37.6717 87.6483 32.9347C87.6483 28.1976 83.8082 24.3575 79.0712 24.3575C74.3341 24.3575 70.4941 28.1976 70.4941 32.9347C70.4941 37.6717 74.3341 41.5118 79.0712 41.5118Z" fill="#F7F6F5"/>
<path d="M71.2464 61.7825C75.9834 61.7825 79.8235 57.9424 79.8235 53.2054C79.8235 48.4684 75.9834 44.6283 71.2464 44.6283C66.5094 44.6283 62.6693 48.4684 62.6693 53.2054C62.6693 57.9424 66.5094 61.7825 71.2464 61.7825Z" fill="#F7F6F5"/>
<path d="M57.8453 77.3784C62.5823 77.3784 66.4224 73.5383 66.4224 68.8013C66.4224 64.0643 62.5823 60.2242 57.8453 60.2242C53.1082 60.2242 49.2682 64.0643 49.2682 68.8013C49.2682 73.5383 53.1082 77.3784 57.8453 77.3784Z" fill="#F7F6F5"/>
<path d="M37.6697 89.898C42.4067 89.898 46.2469 86.0578 46.2469 81.3208C46.2469 76.5838 42.4067 72.7437 37.6697 72.7437C32.9327 72.7437 29.0926 76.5838 29.0926 81.3208C29.0926 86.0578 32.9327 89.898 37.6697 89.898Z" fill="#F7F6F5"/>
<path d="M15.9023 93.82C20.6394 93.82 24.4795 89.9799 24.4795 85.2429C24.4795 80.5059 20.6394 76.6658 15.9023 76.6658C11.1653 76.6658 7.3252 80.5059 7.3252 85.2429C7.3252 89.9799 11.1653 93.82 15.9023 93.82Z" fill="#F7F6F5"/>
<path d="M152.406 52.6896C152.522 52.4795 152.697 52.4563 152.931 52.6199L155.765 53.7397C155.882 53.7862 155.946 53.8508 155.958 53.9315C155.968 54.0224 155.949 54.1141 155.905 54.1941C155.493 54.9307 155.136 55.6972 154.838 56.4871C154.491 57.4097 154.319 58.389 154.331 59.3748C154.306 60.1616 154.456 60.9442 154.768 61.6668C155.026 62.24 155.408 62.7482 155.888 63.1541C156.333 63.5226 156.852 63.7912 157.41 63.9417C157.946 64.0898 158.5 64.1662 159.056 64.1688C160.235 64.2276 161.395 63.8474 162.31 63.1016C163.127 62.3897 163.535 61.2407 163.535 59.6545V49.2597C163.528 49.2124 163.532 49.1641 163.547 49.1187C163.562 49.0732 163.587 49.0319 163.621 48.9979C163.655 48.9639 163.696 48.9382 163.741 48.9228C163.786 48.9074 163.835 48.9028 163.882 48.9093H167.108C167.156 48.9029 167.204 48.9075 167.249 48.9229C167.295 48.9383 167.336 48.964 167.369 48.998C167.403 49.0319 167.428 49.0733 167.443 49.1187C167.458 49.1641 167.462 49.2124 167.455 49.2597V59.7595C167.479 60.9546 167.272 62.143 166.844 63.2591C166.467 64.2191 165.868 65.0766 165.098 65.7621C164.31 66.4434 163.388 66.9503 162.391 67.2494C161.258 67.5879 160.08 67.753 158.898 67.7391C157.745 67.7507 156.596 67.5856 155.492 67.2494C154.497 66.945 153.576 66.4386 152.785 65.7621C152.002 65.0764 151.387 64.2201 150.987 63.2591C150.533 62.137 150.313 60.9342 150.34 59.7242C150.344 58.4413 150.544 57.1666 150.936 55.9449C151.28 54.7996 151.774 53.705 152.406 52.6896ZM158.216 47.1595C158.168 47.1662 158.119 47.1617 158.073 47.1462C158.028 47.1308 157.986 47.1048 157.952 47.0705C157.918 47.0362 157.893 46.9945 157.878 46.9486C157.863 46.9027 157.859 46.8539 157.866 46.8062V43.768C157.859 43.7202 157.863 43.6715 157.878 43.6257C157.893 43.5798 157.918 43.5381 157.952 43.5038C157.986 43.4695 158.028 43.4435 158.073 43.4281C158.119 43.4126 158.168 43.4079 158.216 43.4145H161.575C161.623 43.408 161.672 43.4127 161.717 43.4282C161.763 43.4437 161.805 43.4696 161.839 43.5039C161.873 43.5382 161.898 43.5799 161.913 43.6257C161.928 43.6715 161.932 43.7203 161.925 43.768V46.8062C161.932 46.8539 161.928 46.9026 161.913 46.9485C161.898 46.9944 161.873 47.0361 161.839 47.0704C161.805 47.1047 161.763 47.1306 161.718 47.1461C161.672 47.1616 161.623 47.1662 161.575 47.1595H158.216Z" fill="#2463AF"/>
<path d="M171.9 37.0445C171.893 36.9972 171.897 36.949 171.912 36.9037C171.927 36.8583 171.952 36.8171 171.986 36.7832C172.02 36.7493 172.061 36.7237 172.106 36.7084C172.151 36.6932 172.199 36.6886 172.247 36.6951H175.473C175.521 36.6886 175.569 36.6931 175.614 36.7084C175.659 36.7236 175.7 36.7492 175.734 36.7831C175.768 36.817 175.793 36.8583 175.808 36.9036C175.823 36.949 175.827 36.9972 175.82 37.0445V55.1432C175.764 55.6602 175.908 56.179 176.222 56.5931C176.578 56.8908 177.038 57.0349 177.5 56.994H178.725C178.919 56.9796 179.114 57.0087 179.296 57.0791C179.477 57.1495 179.641 57.2594 179.775 57.4009C180.048 57.8127 180.171 58.3055 180.125 58.7973C180.192 59.288 180.074 59.7862 179.792 60.1937C179.485 60.4211 179.105 60.5281 178.725 60.4946H175.96C174.502 60.4946 173.461 60.1388 172.836 59.4273C172.212 58.7158 171.9 57.6014 171.9 56.0842L171.9 37.0445Z" fill="#2463AF"/>
<path d="M186.249 54.8312C186.234 55.1434 186.298 55.4545 186.436 55.7351C186.574 56.0157 186.78 56.2567 187.037 56.4356C187.667 56.8376 188.407 57.0328 189.154 56.994H189.749C189.942 56.9794 190.135 57.0067 190.317 57.074C190.498 57.1412 190.662 57.2469 190.799 57.3837C191.068 57.7634 191.193 58.2275 191.149 58.6912C191.199 59.1866 191.082 59.6845 190.816 60.1058C190.678 60.2451 190.511 60.3521 190.326 60.4193C190.142 60.4865 189.945 60.5122 189.749 60.4946C188.943 60.5098 188.139 60.3963 187.369 60.1583C187.017 60.0329 186.694 59.8386 186.418 59.5867C186.142 59.3347 185.92 59.0303 185.763 58.6912C185.484 59.3312 184.968 59.8382 184.323 60.1058C183.48 60.3978 182.59 60.5296 181.699 60.4946H178.934C178.569 60.5188 178.205 60.439 177.884 60.2644C177.651 60.1119 177.534 59.776 177.534 59.2567C177.524 58.7139 177.638 58.176 177.866 57.6836C177.958 57.4698 178.112 57.2891 178.309 57.1658C178.506 57.0425 178.737 56.9824 178.969 56.9937H180.649C180.973 57.0081 181.296 56.9487 181.594 56.8201C181.827 56.7039 182.008 56.5047 182.101 56.2617C182.22 55.9371 182.285 55.5954 182.294 55.2499C182.316 54.831 182.328 54.3191 182.329 53.7142V46.3184C182.322 46.2712 182.326 46.2231 182.341 46.1778C182.356 46.1326 182.381 46.0914 182.415 46.0576C182.449 46.0238 182.49 45.9983 182.535 45.9831C182.58 45.9679 182.628 45.9635 182.675 45.9701H185.902C185.949 45.9635 185.997 45.968 186.042 45.9832C186.088 45.9984 186.129 46.0239 186.162 46.0577C186.196 46.0915 186.221 46.1326 186.236 46.1779C186.251 46.2231 186.256 46.2712 186.249 46.3184L186.249 54.8312ZM182.644 42.4695C182.596 42.4761 182.548 42.4715 182.502 42.4561C182.456 42.4406 182.415 42.4147 182.381 42.3804C182.347 42.3461 182.321 42.3044 182.306 42.2585C182.291 42.2126 182.287 42.1639 182.294 42.1161V39.0779C182.287 39.0302 182.291 38.9815 182.306 38.9357C182.321 38.8898 182.347 38.8481 182.381 38.8138C182.415 38.7796 182.456 38.7536 182.502 38.7381C182.548 38.7227 182.596 38.718 182.644 38.7246H186.004C186.052 38.718 186.101 38.7227 186.146 38.7382C186.192 38.7537 186.233 38.7796 186.267 38.8139C186.301 38.8482 186.327 38.8899 186.342 38.9357C186.357 38.9815 186.361 39.0302 186.354 39.0779V42.1161C186.361 42.1638 186.357 42.2126 186.342 42.2584C186.327 42.3043 186.301 42.346 186.268 42.3803C186.234 42.4146 186.192 42.4405 186.146 42.456C186.101 42.4715 186.052 42.4761 186.004 42.4695H182.644Z" fill="#2463AF"/>
<path d="M197.974 54.8242C197.974 56.271 198.82 56.9943 200.512 56.994C200.925 57.0022 201.338 56.9732 201.745 56.9072C202.016 56.8656 202.268 56.7435 202.468 56.5568C202.665 56.3376 202.788 56.0622 202.821 55.7692C202.888 55.294 202.917 54.8143 202.909 54.3345V49.0497C202.902 49.0024 202.906 48.9541 202.921 48.9087C202.936 48.8632 202.961 48.8219 202.995 48.7879C203.028 48.7539 203.069 48.7282 203.115 48.7128C203.16 48.6975 203.208 48.6929 203.256 48.6994H206.482C206.529 48.6929 206.578 48.6976 206.623 48.713C206.668 48.7283 206.709 48.754 206.743 48.788C206.777 48.822 206.802 48.8633 206.817 48.9087C206.832 48.9542 206.836 49.0024 206.829 49.0497V54.7901C206.805 55.1 206.852 55.4114 206.968 55.6997C207.085 55.9881 207.266 56.2456 207.498 56.4521C208.016 56.837 208.652 57.0288 209.296 56.9943C209.746 57.0055 210.195 56.9648 210.635 56.8732C210.782 56.8437 210.922 56.7853 211.046 56.7014C211.17 56.6175 211.276 56.5098 211.358 56.3844C211.533 56.0677 211.635 55.7164 211.658 55.3555C211.712 54.7637 211.735 54.1696 211.728 53.5754V46.3185C211.722 46.2713 211.726 46.2231 211.741 46.1779C211.756 46.1326 211.781 46.0914 211.815 46.0576C211.848 46.0238 211.89 45.9983 211.935 45.9831C211.98 45.968 212.028 45.9635 212.075 45.9702H215.302C215.349 45.9636 215.397 45.9681 215.442 45.9834C215.488 45.9987 215.529 46.0243 215.562 46.0582C215.596 46.0921 215.621 46.1333 215.636 46.1787C215.651 46.224 215.655 46.2722 215.649 46.3195V56.0843C215.649 57.6947 215.316 58.8323 214.652 59.497C213.987 60.1618 212.861 60.4943 211.275 60.4946H209.77C209.047 60.5165 208.331 60.352 207.69 60.017C207.125 59.7062 206.667 59.2317 206.377 58.6559C206.098 59.2919 205.593 59.8019 204.96 60.0877C204.162 60.3906 203.31 60.529 202.457 60.4946H200.917C199.261 60.4946 198.129 59.8699 197.522 58.6206C197.244 59.2574 196.746 59.7724 196.118 60.0705C195.317 60.3873 194.459 60.5318 193.599 60.4946H189.609C189.228 60.5237 188.852 60.403 188.559 60.1584C188.283 59.8016 188.158 59.3514 188.209 58.9035C188.161 58.3861 188.278 57.8668 188.542 57.4192C188.674 57.2697 188.839 57.1533 189.025 57.0795C189.21 57.0057 189.41 56.9764 189.609 56.9942H192.409C193.132 56.9942 193.587 56.8017 193.774 56.4166C194.005 55.7481 194.1 55.0403 194.053 54.3347V49.0499C194.046 49.0026 194.051 48.9543 194.065 48.9089C194.08 48.8634 194.106 48.8221 194.139 48.7881C194.173 48.7541 194.214 48.7284 194.259 48.713C194.305 48.6977 194.353 48.693 194.4 48.6995H197.627C197.674 48.6931 197.723 48.6978 197.768 48.7131C197.813 48.7285 197.854 48.7542 197.888 48.7882C197.922 48.8222 197.947 48.8635 197.962 48.9089C197.977 48.9543 197.981 49.0026 197.974 49.0499L197.974 54.8242Z" fill="#2463AF"/>
<path d="M229.543 56.994H233.207C233.672 57.035 234.134 56.8909 234.493 56.5931C234.809 56.1797 234.954 55.6606 234.898 55.1432V37.0444C234.891 36.9972 234.895 36.9489 234.91 36.9036C234.925 36.8582 234.95 36.8169 234.984 36.783C235.017 36.7491 235.058 36.7235 235.104 36.7083C235.149 36.693 235.197 36.6885 235.245 36.6951H238.471C238.518 36.6886 238.566 36.6932 238.612 36.7085C238.657 36.7238 238.698 36.7494 238.732 36.7833C238.765 36.8172 238.79 36.8584 238.805 36.9037C238.82 36.949 238.825 36.9972 238.818 37.0444V56.0842C238.818 57.6018 238.505 58.7162 237.881 59.4273C237.256 60.1391 236.215 60.4949 234.758 60.4946H219.393C219.346 60.5012 219.297 60.4966 219.251 60.4811C219.205 60.4656 219.164 60.4397 219.13 60.4054C219.096 60.3711 219.07 60.3294 219.055 60.2835C219.04 60.2377 219.036 60.1889 219.043 60.1411V57.3473C219.036 57.2996 219.04 57.2508 219.055 57.205C219.07 57.1591 219.096 57.1174 219.13 57.0831C219.164 57.0488 219.205 57.0229 219.251 57.0074C219.297 56.992 219.346 56.9874 219.393 56.994H225.623V41.9445C225.616 41.8972 225.62 41.849 225.635 41.8036C225.65 41.7582 225.675 41.7169 225.709 41.6829C225.743 41.649 225.784 41.6234 225.829 41.6082C225.874 41.5929 225.923 41.5885 225.97 41.5952H229.196C229.244 41.5886 229.292 41.5931 229.337 41.6084C229.382 41.6237 229.423 41.6493 229.457 41.6832C229.491 41.7171 229.516 41.7584 229.531 41.8037C229.546 41.8491 229.55 41.8973 229.543 41.9445V56.994ZM225.098 37.5695C224.727 36.9709 224.533 36.2796 224.538 35.5753C224.54 35.1653 224.605 34.758 224.731 34.3678C224.863 33.9518 225.084 33.5694 225.378 33.247C225.704 32.893 226.096 32.6074 226.533 32.4069C227.073 32.1707 227.659 32.0573 228.248 32.0748C228.851 32.0645 229.45 32.1901 229.998 32.4423C230.477 32.6609 230.897 32.9908 231.223 33.4045C231.293 33.5448 231.293 33.6499 231.223 33.7197L230.313 34.5951C230.173 34.7122 230.056 34.7233 229.963 34.6304C229.735 34.4015 229.476 34.207 229.193 34.0529C228.914 33.9013 228.601 33.8228 228.283 33.8247C228.048 33.8121 227.814 33.851 227.596 33.9387C227.379 34.0265 227.183 34.1609 227.023 34.3326C226.714 34.685 226.552 35.1418 226.568 35.6099C226.557 36.0415 226.686 36.4652 226.935 36.8174C227.137 37.1132 227.392 37.3684 227.688 37.5696H231.223C231.362 37.5696 231.433 37.6525 231.433 37.815V39.1104C231.433 39.273 231.362 39.3548 231.223 39.3548H223.803C223.663 39.3548 223.593 39.273 223.593 39.1104V37.815C223.593 37.6525 223.663 37.5696 223.803 37.5696L225.098 37.5695Z" fill="#2463AF"/>
<path d="M247.322 60.1442C247.329 60.1915 247.325 60.2398 247.31 60.2852C247.295 60.3307 247.27 60.372 247.236 60.406C247.203 60.44 247.162 60.4657 247.116 60.481C247.071 60.4964 247.023 60.5011 246.976 60.4946H243.749C243.702 60.5011 243.653 60.4965 243.608 60.4811C243.563 60.4657 243.522 60.44 243.488 60.4061C243.455 60.3721 243.429 60.3307 243.414 60.2853C243.399 60.2398 243.395 60.1915 243.402 60.1442V37.0445C243.395 36.9972 243.4 36.949 243.415 36.9037C243.43 36.8584 243.455 36.8171 243.488 36.7832C243.522 36.7493 243.563 36.7238 243.608 36.7085C243.654 36.6932 243.702 36.6886 243.749 36.6952H246.976C247.023 36.6887 247.071 36.6932 247.116 36.7085C247.161 36.7238 247.202 36.7494 247.236 36.7833C247.27 36.8172 247.295 36.8584 247.31 36.9037C247.325 36.9491 247.329 36.9972 247.322 37.0445V60.1442Z" fill="#2463AF"/>
<path d="M270.29 60.7389C269.25 60.7554 268.215 60.5897 267.232 60.2492C266.353 59.9358 265.575 59.3918 264.978 58.6741C264.811 58.954 264.577 59.1884 264.297 59.3567C264.038 59.5065 263.787 59.67 263.545 59.8464C263.299 60.0308 263.092 60.263 262.937 60.5289C262.747 60.9085 262.661 61.3312 262.686 61.7547V67.5645H258.766V61.0196C258.747 60.3881 258.848 59.7586 259.064 59.1648C259.239 58.7105 259.501 58.2943 259.834 57.939C260.136 57.6233 260.477 57.3471 260.849 57.1172C261.21 56.8951 261.549 56.6733 261.864 56.4518C262.17 56.2382 262.451 55.9917 262.704 55.7167C262.962 55.4181 263.115 55.0434 263.141 54.6495C263.118 54.4162 263.1 54.1769 263.089 53.9315C263.077 53.6872 263.071 53.4247 263.071 53.144C263.042 51.9086 263.225 50.6775 263.614 49.5044C263.918 48.5922 264.433 47.765 265.118 47.0902C265.771 46.4771 266.555 46.0222 267.411 45.7604C269.283 45.2004 271.278 45.2004 273.15 45.7604C274.006 46.0223 274.791 46.4772 275.443 47.0902C276.128 47.7653 276.643 48.5924 276.948 49.5044C277.336 50.6775 277.519 51.9087 277.491 53.144C277.491 53.354 277.485 53.559 277.473 53.7569C277.461 53.9558 277.443 54.1477 277.42 54.3345C277.385 55.0945 277.642 55.8393 278.138 56.4164C278.521 56.8052 279.044 57.0256 279.59 57.0293H280.605C280.798 57.0147 280.991 57.0415 281.172 57.1078C281.353 57.1742 281.518 57.2786 281.655 57.414C281.924 57.7896 282.048 58.2496 282.005 58.7094C282.055 59.2001 281.938 59.6931 281.673 60.1089C281.534 60.2475 281.366 60.3539 281.182 60.4206C280.997 60.4873 280.801 60.5125 280.605 60.4946C280.208 60.4946 279.794 60.4827 279.363 60.4589C278.931 60.4358 278.502 60.3654 278.085 60.2489C277.658 60.1292 277.251 59.9464 276.878 59.7067C276.461 59.4292 276.109 59.0652 275.845 58.6395C275.217 59.3853 274.395 59.9424 273.469 60.2489C272.444 60.5863 271.369 60.7518 270.29 60.7389ZM270.298 48.8397C269.827 48.8052 269.354 48.8858 268.92 49.0747C268.486 49.2636 268.105 49.5551 267.809 49.9241C267.204 50.8587 266.917 51.9636 266.991 53.0743C266.991 54.5677 267.264 55.6409 267.809 56.2942C268.123 56.6356 268.51 56.9012 268.941 57.0711C269.372 57.2409 269.836 57.3106 270.298 57.2747C270.76 57.3116 271.223 57.2407 271.652 57.0675C272.081 56.8944 272.464 56.6238 272.77 56.2771C273.304 55.6117 273.571 54.5441 273.571 53.0743C273.571 50.2513 272.48 48.8397 270.298 48.8397Z" fill="#2463AF"/>
<path d="M280.571 60.4946C280.191 60.5237 279.814 60.403 279.521 60.1583C279.242 59.7893 279.117 59.327 279.171 58.8678C279.126 58.3618 279.243 57.8545 279.504 57.4188C279.636 57.2693 279.801 57.1529 279.987 57.0791C280.172 57.0053 280.372 56.9761 280.571 56.9938H282.846C283.308 57.0346 283.768 56.8905 284.124 56.593C284.438 56.1795 284.582 55.6614 284.526 55.1451V46.3183C284.519 46.2711 284.523 46.2229 284.538 46.1776C284.553 46.1323 284.579 46.0911 284.612 46.0573C284.646 46.0235 284.687 45.998 284.732 45.9828C284.778 45.9677 284.826 45.9633 284.873 45.9699H288.099C288.147 45.9634 288.195 45.9679 288.24 45.9832C288.285 45.9985 288.326 46.0241 288.36 46.058C288.394 46.0919 288.419 46.1332 288.434 46.1785C288.449 46.2239 288.453 46.2721 288.446 46.3193V56.084C288.446 57.6016 288.134 58.716 287.509 59.4271C286.885 60.139 285.844 60.4947 284.386 60.4944L280.571 60.4946ZM281.901 67.2141C281.853 67.2206 281.804 67.216 281.759 67.2005C281.713 67.185 281.672 67.1591 281.638 67.1248C281.604 67.0905 281.578 67.0488 281.563 67.0029C281.548 66.9571 281.544 66.9084 281.551 66.8607V63.8225C281.544 63.7748 281.548 63.7261 281.563 63.6802C281.578 63.6344 281.604 63.5927 281.638 63.5584C281.672 63.5241 281.713 63.4982 281.759 63.4827C281.804 63.4672 281.853 63.4626 281.901 63.4691H284.841C284.889 63.4626 284.938 63.4673 284.983 63.4828C285.029 63.4983 285.07 63.5242 285.104 63.5585C285.138 63.5928 285.164 63.6345 285.179 63.6803C285.194 63.7261 285.198 63.7748 285.191 63.8225V66.8607C285.198 66.9084 285.194 66.9571 285.179 67.0029C285.164 67.0487 285.138 67.0904 285.104 67.1247C285.07 67.1589 285.029 67.1849 284.983 67.2004C284.938 67.2159 284.889 67.2206 284.841 67.2141H281.901ZM286.451 67.2141C286.403 67.2206 286.355 67.216 286.309 67.2005C286.263 67.1851 286.222 67.1591 286.188 67.1248C286.154 67.0906 286.128 67.0488 286.113 67.003C286.098 66.9571 286.094 66.9084 286.101 66.8607V63.8225C286.094 63.7748 286.098 63.726 286.113 63.6802C286.128 63.6343 286.154 63.5926 286.188 63.5583C286.222 63.524 286.263 63.4981 286.309 63.4826C286.355 63.4671 286.403 63.4625 286.451 63.4691H289.391C289.439 63.4626 289.487 63.4672 289.533 63.4827C289.579 63.4982 289.62 63.5241 289.654 63.5583C289.688 63.5926 289.714 63.6343 289.729 63.6802C289.744 63.726 289.748 63.7747 289.741 63.8225V66.8607C289.748 66.9084 289.744 66.9571 289.729 67.003C289.714 67.0488 289.688 67.0905 289.654 67.1248C289.62 67.1591 289.579 67.185 289.533 67.2005C289.487 67.216 289.439 67.2206 289.391 67.2141H286.451Z" fill="#2463AF"/>
<path d="M295.865 67.5646C295.818 67.5714 295.769 67.567 295.724 67.5517C295.678 67.5365 295.637 67.5109 295.603 67.4769C295.569 67.4429 295.543 67.4015 295.528 67.3559C295.513 67.3103 295.508 67.2618 295.515 67.2142V64.4143C295.508 64.3667 295.513 64.3182 295.528 64.2726C295.543 64.227 295.569 64.1856 295.603 64.1516C295.637 64.1176 295.678 64.092 295.724 64.0768C295.769 64.0616 295.818 64.0572 295.865 64.064H299.96C300.432 64.0716 300.902 64.0186 301.36 63.9064C301.729 63.8165 302.068 63.6293 302.34 63.3642C302.625 63.0574 302.829 62.6848 302.935 62.2798C303.09 61.6977 303.16 61.0967 303.145 60.4947H299.61C298.624 60.5087 297.64 60.385 296.688 60.1272C295.879 59.9066 295.138 59.4853 294.535 58.9024C293.918 58.2766 293.457 57.5152 293.188 56.6791C292.846 55.5929 292.687 54.4579 292.715 53.3198C292.685 52.074 292.887 50.8336 293.311 49.6617C293.655 48.7308 294.193 47.8838 294.89 47.1768C295.534 46.5427 296.314 46.0641 297.171 45.7774C298.053 45.4831 298.978 45.3354 299.908 45.3402C300.888 45.3297 301.864 45.4707 302.802 45.7582C303.648 46.0195 304.423 46.4733 305.065 47.084C305.734 47.7494 306.239 48.562 306.538 49.4569C306.917 50.6163 307.095 51.832 307.065 53.0514V56.9944H309.48C309.673 56.9799 309.866 57.0072 310.048 57.0745C310.229 57.1417 310.393 57.2473 310.53 57.3841C310.799 57.764 310.924 58.228 310.88 58.6917C310.944 59.2046 310.826 59.7238 310.547 60.1588C310.4 60.2826 310.23 60.376 310.047 60.4337C309.864 60.4915 309.671 60.5123 309.48 60.495H307.065V61.2644C307.065 63.4574 306.512 65.0558 305.406 66.0594C304.299 67.0631 302.694 67.5649 300.591 67.5649L295.865 67.5646ZM299.925 48.8398C299.449 48.8204 298.974 48.9183 298.544 49.1249C298.114 49.3316 297.741 49.6407 297.458 50.0252C296.821 50.9557 296.507 52.0696 296.565 53.1956C296.565 54.6596 296.863 55.6589 297.458 56.1934C298.186 56.7718 299.103 57.0573 300.03 56.9941H303.145V53.022C303.218 51.9276 302.949 50.8375 302.375 49.903C302.086 49.5371 301.712 49.2485 301.284 49.0629C300.857 48.8773 300.39 48.8007 299.925 48.8397V48.8398Z" fill="#2463AF"/>
<path d="M318.86 45.3401C321.24 45.3401 323.06 45.9042 324.32 47.0323C324.947 47.6006 325.442 48.3 325.768 49.0809C326.095 49.8618 326.246 50.705 326.209 51.5507C326.222 52.6423 325.951 53.7183 325.422 54.6737C324.909 55.6032 324.184 56.3982 323.305 56.994H328.275C328.655 56.9648 329.032 57.0854 329.324 57.3302C329.606 57.7112 329.731 58.1855 329.675 58.6559C329.722 59.1566 329.606 59.6592 329.342 60.0877C329.207 60.2323 329.041 60.3441 328.856 60.4147C328.671 60.4852 328.472 60.5125 328.275 60.4946H323.41C322.57 60.4946 321.776 60.4596 321.03 60.3896C320.27 60.315 319.539 60.0632 318.895 59.6545C318.134 60.0715 317.293 60.3221 316.428 60.3896C315.552 60.4592 314.776 60.4942 314.1 60.4946H309.446C309.25 60.509 309.053 60.4781 308.871 60.4044C308.689 60.3307 308.526 60.2161 308.396 60.0695C308.127 59.6624 308.004 59.1769 308.046 58.6912C307.988 58.2122 308.106 57.7287 308.378 57.3302C308.525 57.2063 308.695 57.1128 308.878 57.0551C309.061 56.9974 309.254 56.9766 309.446 56.994H314.38C313.518 56.3903 312.805 55.5964 312.298 54.6737C311.769 53.7185 311.498 52.6423 311.51 51.5507C311.474 50.705 311.625 49.8617 311.952 49.0808C312.279 48.2999 312.773 47.6005 313.401 47.0323C314.66 45.9046 316.48 45.3405 318.86 45.3401ZM315.255 42.4695C315.207 42.4762 315.158 42.4716 315.113 42.4561C315.067 42.4406 315.025 42.4147 314.991 42.3804C314.957 42.3461 314.932 42.3044 314.917 42.2585C314.902 42.2126 314.898 42.1639 314.905 42.1161V39.078C314.898 39.0302 314.902 38.9815 314.917 38.9357C314.932 38.8898 314.958 38.8481 314.992 38.8138C315.026 38.7796 315.067 38.7537 315.113 38.7382C315.158 38.7227 315.207 38.718 315.255 38.7246H318.195C318.243 38.7181 318.292 38.7228 318.337 38.7383C318.383 38.7538 318.424 38.7797 318.458 38.814C318.492 38.8482 318.518 38.8899 318.533 38.9357C318.548 38.9815 318.552 39.0302 318.545 39.078V42.1161C318.552 42.1639 318.548 42.2126 318.533 42.2584C318.518 42.3043 318.492 42.346 318.458 42.3803C318.424 42.4146 318.383 42.4405 318.337 42.456C318.292 42.4715 318.243 42.4761 318.195 42.4695H315.255ZM318.86 48.455C317.994 48.439 317.152 48.7444 316.497 49.3122C316.152 49.634 315.884 50.0288 315.711 50.4679C315.538 50.9069 315.466 51.379 315.5 51.8495C315.452 52.9012 315.802 53.9323 316.48 54.7373C317.136 55.4744 317.949 56.0544 318.86 56.4346C319.757 56.0474 320.557 55.468 321.205 54.7373C321.883 53.932 322.233 52.9011 322.185 51.8495C322.218 51.3805 322.148 50.9099 321.979 50.4713C321.809 50.0327 321.545 49.6369 321.205 49.3122C320.558 48.7432 319.721 48.4373 318.86 48.455V48.455ZM319.806 42.4696C319.758 42.4763 319.709 42.4717 319.663 42.4563C319.617 42.4408 319.576 42.4149 319.542 42.3806C319.508 42.3463 319.482 42.3046 319.467 42.2587C319.452 42.2127 319.448 42.164 319.455 42.1162V39.078C319.448 39.0302 319.452 38.9815 319.467 38.9356C319.483 38.8898 319.508 38.848 319.542 38.8138C319.576 38.7795 319.618 38.7536 319.663 38.7381C319.709 38.7226 319.758 38.718 319.806 38.7246H322.745C322.793 38.7181 322.842 38.7227 322.887 38.7382C322.933 38.7537 322.975 38.7796 323.008 38.8139C323.042 38.8482 323.068 38.8899 323.083 38.9357C323.098 38.9816 323.102 39.0303 323.095 39.078V42.1162C323.102 42.1639 323.098 42.2127 323.083 42.2585C323.068 42.3044 323.043 42.3462 323.009 42.3805C322.975 42.4148 322.933 42.4407 322.888 42.4562C322.842 42.4716 322.793 42.4762 322.745 42.4696H319.806Z" fill="#2463AF"/>
<path d="M335.839 58.6914C335.553 59.3388 335.023 59.8471 334.365 60.106C333.509 60.3957 332.607 60.5274 331.704 60.4948H328.45C328.069 60.5239 327.692 60.4033 327.4 60.1585C327.118 59.7776 326.993 59.3032 327.05 58.8328C327.002 58.3322 327.119 57.8296 327.382 57.4011C327.517 57.2566 327.684 57.1449 327.869 57.0744C328.054 57.0039 328.253 56.9764 328.45 56.9942H330.725C331.056 57.0133 331.388 56.9473 331.687 56.8023C331.914 56.668 332.088 56.4583 332.177 56.2096C332.295 55.8731 332.36 55.5202 332.369 55.1636C332.393 54.7324 332.404 54.203 332.405 53.5753V46.3185C332.4 46.2573 332.417 46.1963 332.451 46.1457C332.486 46.0951 332.537 46.0577 332.596 46.0398C332.723 45.9932 332.858 45.9696 332.994 45.9702H335.978C336.025 45.9636 336.073 45.968 336.118 45.9832C336.163 45.9984 336.204 46.0239 336.238 46.0577C336.272 46.0915 336.297 46.1327 336.312 46.1779C336.327 46.2232 336.331 46.2713 336.324 46.3185V54.8312C336.309 55.1435 336.373 55.4545 336.511 55.7351C336.649 56.0157 336.856 56.2568 337.112 56.4356C337.742 56.8376 338.483 57.0328 339.229 56.994H339.824C340.017 56.9795 340.211 57.0068 340.392 57.074C340.573 57.1413 340.738 57.2469 340.874 57.3837C341.144 57.7636 341.268 58.2276 341.224 58.6913C341.274 59.1867 341.157 59.6846 340.892 60.1058C340.753 60.2451 340.586 60.3522 340.401 60.4194C340.217 60.4866 340.02 60.5123 339.824 60.4946C339.018 60.5098 338.215 60.3963 337.445 60.1584C337.093 60.033 336.77 59.8386 336.494 59.5868C336.218 59.3349 335.995 59.0305 335.839 58.6914ZM330.654 42.4697C330.607 42.4764 330.558 42.4718 330.512 42.4563C330.466 42.4408 330.425 42.4149 330.391 42.3806C330.357 42.3463 330.332 42.3045 330.317 42.2587C330.302 42.2128 330.297 42.1641 330.305 42.1163V39.0782C330.298 39.0304 330.302 38.9817 330.317 38.9359C330.332 38.8901 330.357 38.8484 330.391 38.8141C330.425 38.7798 330.467 38.7539 330.512 38.7384C330.558 38.7229 330.607 38.7182 330.654 38.7248H333.595C333.642 38.7183 333.691 38.7229 333.737 38.7384C333.782 38.7539 333.824 38.7799 333.858 38.8141C333.892 38.8484 333.917 38.8901 333.932 38.9359C333.947 38.9817 333.951 39.0304 333.944 39.0782V42.1163C333.952 42.1641 333.947 42.2128 333.932 42.2586C333.917 42.3045 333.892 42.3462 333.858 42.3805C333.824 42.4148 333.782 42.4407 333.737 42.4562C333.691 42.4717 333.642 42.4763 333.595 42.4697H330.654ZM335.205 42.4697C335.157 42.4764 335.108 42.4719 335.062 42.4564C335.016 42.441 334.975 42.4151 334.941 42.3808C334.907 42.3465 334.881 42.3047 334.866 42.2588C334.851 42.2129 334.847 42.1641 334.854 42.1163V39.0782C334.847 39.0304 334.851 38.9817 334.866 38.9358C334.882 38.8899 334.907 38.8482 334.941 38.8139C334.975 38.7796 335.017 38.7537 335.062 38.7383C335.108 38.7228 335.157 38.7182 335.205 38.7248H338.144C338.192 38.7182 338.241 38.7229 338.286 38.7384C338.332 38.7539 338.374 38.7798 338.408 38.8141C338.441 38.8483 338.467 38.89 338.482 38.9359C338.497 38.9817 338.501 39.0304 338.494 39.0782V42.1163C338.501 42.1641 338.497 42.2128 338.482 42.2587C338.467 42.3046 338.442 42.3463 338.408 42.3806C338.374 42.4149 338.332 42.4408 338.287 42.4563C338.241 42.4718 338.192 42.4764 338.144 42.4697H335.205Z" fill="#2463AF"/>
<path d="M339.859 60.4946C339.479 60.5237 339.102 60.403 338.809 60.1583C338.525 59.765 338.4 59.2788 338.46 58.7972C338.415 58.3079 338.531 57.8174 338.792 57.4009C338.927 57.2563 339.094 57.1446 339.279 57.0741C339.464 57.0036 339.662 56.9762 339.859 56.994H341.574C342.036 57.0349 342.496 56.8907 342.852 56.5931C343.166 56.179 343.31 55.6602 343.255 55.1432V37.0444C343.247 36.9972 343.252 36.949 343.266 36.9036C343.281 36.8582 343.307 36.8169 343.34 36.783C343.374 36.7491 343.415 36.7235 343.46 36.7083C343.505 36.693 343.554 36.6885 343.601 36.6951H346.827C346.875 36.6886 346.923 36.6931 346.968 36.7084C347.013 36.7237 347.054 36.7493 347.088 36.7832C347.122 36.8171 347.147 36.8583 347.162 36.9037C347.177 36.949 347.181 36.9972 347.174 37.0444V56.0842C347.174 57.6018 346.862 58.7161 346.238 59.4273C345.613 60.1391 344.572 60.4949 343.114 60.4946H339.859Z" fill="#2463AF"/>
<path d="M369.503 45.3401V43.8346C369.496 43.787 369.5 43.7385 369.515 43.6929C369.531 43.6473 369.556 43.6059 369.59 43.5719C369.624 43.5379 369.665 43.5123 369.711 43.497C369.757 43.4818 369.805 43.4775 369.853 43.4842H373.073C373.12 43.4775 373.168 43.4818 373.214 43.497C373.259 43.5121 373.301 43.5377 373.335 43.5715C373.369 43.6054 373.394 43.6467 373.41 43.6922C373.425 43.7377 373.429 43.7861 373.422 43.8336V55.1442C373.366 55.6609 373.511 56.1795 373.825 56.5931C374.002 56.7405 374.205 56.8518 374.424 56.9206C374.643 56.9894 374.874 57.0143 375.103 56.9939H376.432C377.365 56.9939 377.832 57.5833 377.832 58.7619C377.892 59.2521 377.775 59.7476 377.5 60.1583C377.353 60.2821 377.183 60.3756 377 60.4333C376.817 60.4911 376.624 60.5119 376.432 60.4946H373.598C372.667 60.5455 371.74 60.3376 370.92 59.8939C370.572 59.6477 370.279 59.3321 370.059 58.967C369.839 58.6019 369.698 58.1952 369.643 57.7725C369.133 58.2127 368.537 58.5414 367.893 58.7378C367.202 58.9543 366.482 59.0629 365.758 59.0599C364.886 59.0657 364.018 58.9356 363.185 58.6742C362.393 58.4342 361.665 58.0185 361.056 57.458C360.447 56.8975 359.973 56.2067 359.668 55.4371C359.295 54.4845 359.117 53.467 359.143 52.4444C359.108 51.2857 359.305 50.1318 359.72 49.0498C360.037 48.2379 360.539 47.5112 361.186 46.9278C361.833 46.3444 362.608 45.9204 363.448 45.6896C364.279 45.4545 365.139 45.3369 366.003 45.3403L369.503 45.3401ZM362.818 41.07C362.77 41.0766 362.721 41.0719 362.676 41.0564C362.63 41.0409 362.588 41.015 362.554 40.9807C362.521 40.9464 362.495 40.9047 362.48 40.8589C362.465 40.813 362.461 40.7643 362.468 40.7166V37.6784C362.461 37.6307 362.465 37.582 362.48 37.5362C362.495 37.4903 362.521 37.4486 362.554 37.4143C362.588 37.3801 362.63 37.3541 362.676 37.3386C362.721 37.3231 362.77 37.3185 362.818 37.3251H365.758C365.806 37.3185 365.854 37.3232 365.9 37.3387C365.946 37.3542 365.987 37.3801 366.021 37.4144C366.055 37.4487 366.08 37.4904 366.096 37.5362C366.111 37.582 366.115 37.6307 366.108 37.6784V40.7166C366.115 40.7643 366.111 40.813 366.096 40.8588C366.08 40.9047 366.055 40.9464 366.021 40.9806C365.987 41.0149 365.946 41.0408 365.9 41.0563C365.854 41.0718 365.806 41.0765 365.758 41.07H362.818ZM366.213 55.5591C366.672 55.5966 367.134 55.5299 367.565 55.3642C367.995 55.1984 368.382 54.9377 368.698 54.6016C369.288 53.7914 369.573 52.7987 369.503 51.7987V48.8393H366.388C365.517 48.7958 364.659 49.0679 363.973 49.6057C363.366 50.1166 363.063 51.0566 363.063 52.4257C363.027 52.8574 363.083 53.2917 363.228 53.6999C363.373 54.1082 363.603 54.4809 363.902 54.7934C364.547 55.3338 365.373 55.6077 366.213 55.5592V55.5591ZM367.368 41.07C367.32 41.0766 367.271 41.072 367.226 41.0565C367.18 41.041 367.139 41.0151 367.105 40.9808C367.071 40.9465 367.045 40.9048 367.03 40.8589C367.015 40.8131 367.011 40.7643 367.018 40.7166V37.6784C367.011 37.6307 367.015 37.582 367.03 37.5361C367.045 37.4903 367.071 37.4485 367.105 37.4143C367.139 37.38 367.18 37.354 367.226 37.3386C367.271 37.3231 367.32 37.3185 367.368 37.3251H370.308C370.355 37.3185 370.404 37.3231 370.45 37.3386C370.495 37.3541 370.537 37.3801 370.571 37.4143C370.605 37.4486 370.63 37.4903 370.645 37.5362C370.66 37.582 370.665 37.6307 370.657 37.6784V40.7166C370.665 40.7643 370.66 40.813 370.645 40.8589C370.63 40.9047 370.605 40.9464 370.571 40.9807C370.537 41.015 370.495 41.0409 370.45 41.0564C370.404 41.0719 370.355 41.0766 370.308 41.07H367.368Z" fill="#2463AF"/>
<path d="M376.852 60.4946C376.472 60.5237 376.095 60.403 375.802 60.1583C375.524 59.7893 375.398 59.327 375.452 58.8678C375.407 58.3618 375.524 57.8545 375.785 57.4188C375.917 57.2693 376.083 57.1529 376.268 57.0791C376.454 57.0053 376.654 56.9761 376.852 56.9938H379.127C379.589 57.0346 380.049 56.8905 380.405 56.5929C380.719 56.1795 380.863 55.6614 380.807 55.1451V46.3183C380.8 46.2711 380.805 46.2229 380.82 46.1776C380.835 46.1323 380.86 46.0911 380.894 46.0573C380.927 46.0235 380.968 45.998 381.014 45.9828C381.059 45.9677 381.107 45.9633 381.154 45.9699H384.381C384.428 45.9634 384.476 45.9679 384.521 45.9832C384.567 45.9985 384.608 46.0241 384.641 46.058C384.675 46.0919 384.7 46.1331 384.715 46.1785C384.73 46.2238 384.734 46.2721 384.727 46.3193V56.084C384.727 57.6016 384.415 58.716 383.79 59.4271C383.166 60.139 382.125 60.4947 380.668 60.4944L376.852 60.4946ZM378.182 67.2141C378.134 67.2206 378.086 67.216 378.04 67.2005C377.994 67.185 377.953 67.1591 377.919 67.1248C377.885 67.0905 377.859 67.0488 377.844 67.0029C377.829 66.9571 377.825 66.9084 377.832 66.8607V63.8225C377.825 63.7748 377.829 63.7261 377.844 63.6802C377.859 63.6344 377.885 63.5927 377.919 63.5584C377.953 63.5241 377.994 63.4982 378.04 63.4827C378.086 63.4672 378.134 63.4626 378.182 63.4691H381.122C381.17 63.4626 381.219 63.4673 381.264 63.4828C381.31 63.4983 381.352 63.5242 381.386 63.5585C381.419 63.5927 381.445 63.6344 381.46 63.6803C381.475 63.7261 381.479 63.7748 381.472 63.8225V66.8607C381.479 66.9084 381.475 66.9571 381.46 67.0029C381.445 67.0487 381.419 67.0904 381.386 67.1247C381.352 67.159 381.31 67.1849 381.264 67.2004C381.219 67.2159 381.17 67.2206 381.122 67.2141H378.182ZM382.732 67.2141C382.685 67.2206 382.636 67.216 382.59 67.2005C382.544 67.1851 382.503 67.1591 382.469 67.1248C382.435 67.0906 382.41 67.0488 382.395 67.003C382.38 66.9571 382.375 66.9084 382.383 66.8607V63.8225C382.375 63.7748 382.38 63.726 382.395 63.6802C382.41 63.6343 382.435 63.5926 382.469 63.5583C382.503 63.524 382.544 63.4981 382.59 63.4826C382.636 63.4671 382.685 63.4625 382.732 63.4691H385.672C385.72 63.4626 385.769 63.4672 385.814 63.4827C385.86 63.4982 385.901 63.5241 385.935 63.5583C385.969 63.5926 385.995 63.6343 386.01 63.6802C386.025 63.726 386.029 63.7747 386.022 63.8225V66.8607C386.029 66.9084 386.025 66.9571 386.01 67.003C385.995 67.0488 385.969 67.0906 385.935 67.1248C385.901 67.1591 385.86 67.185 385.814 67.2005C385.769 67.216 385.72 67.2206 385.672 67.2141H382.732Z" fill="#2463AF"/>
<path d="M402.612 54.5092C402.634 55.4812 402.529 56.452 402.3 57.3969C402.134 58.0736 401.813 58.7027 401.363 59.2345C400.936 59.7079 400.382 60.048 399.767 60.214C399.017 60.4145 398.243 60.509 397.467 60.4947H389.347C389.3 60.5013 389.251 60.4967 389.205 60.4812C389.159 60.4657 389.118 60.4398 389.084 60.4055C389.05 60.3712 389.024 60.3295 389.009 60.2836C388.994 60.2378 388.99 60.189 388.997 60.1413V57.3474C388.99 57.2996 388.994 57.2509 389.009 57.205C389.024 57.1592 389.05 57.1174 389.084 57.0831C389.118 57.0488 389.159 57.023 389.205 57.0075C389.251 56.992 389.3 56.9874 389.347 56.994H395.857C396.362 57.0065 396.867 56.9597 397.362 56.8547C397.685 56.7992 397.981 56.6399 398.205 56.401C398.429 56.1622 398.569 55.8567 398.604 55.531C398.668 55.1042 398.698 54.6731 398.692 54.2416V51.9062C398.692 49.8625 397.502 48.8404 395.122 48.8398H390.922C390.874 48.8466 390.826 48.8422 390.78 48.827C390.735 48.8118 390.693 48.7861 390.659 48.7521C390.625 48.7181 390.6 48.6767 390.584 48.6311C390.569 48.5855 390.565 48.537 390.572 48.4894V45.6895C390.565 45.642 390.569 45.5936 390.585 45.548C390.6 45.5025 390.625 45.4612 390.659 45.4273C390.693 45.3934 390.735 45.3679 390.78 45.3527C390.826 45.3376 390.874 45.3333 390.922 45.3401H396.522C398.144 45.2551 399.735 45.8003 400.964 46.8617C402.062 47.8775 402.611 49.4584 402.612 51.6043L402.612 54.5092Z" fill="#2463AF"/>
<path d="M409.366 67.5646C409.319 67.5714 409.27 67.567 409.225 67.5517C409.179 67.5365 409.138 67.5109 409.104 67.4769C409.07 67.4429 409.044 67.4015 409.029 67.3559C409.014 67.3103 409.009 67.2618 409.016 67.2142V64.4143C409.009 64.3667 409.014 64.3182 409.029 64.2726C409.044 64.227 409.07 64.1856 409.104 64.1516C409.138 64.1176 409.179 64.092 409.225 64.0768C409.27 64.0616 409.319 64.0572 409.366 64.064H413.461C413.933 64.0716 414.403 64.0186 414.861 63.9064C415.231 63.8166 415.569 63.6293 415.841 63.3642C416.126 63.0574 416.331 62.6848 416.437 62.2798C416.591 61.6977 416.662 61.0967 416.647 60.4947H413.112C412.125 60.5087 411.141 60.385 410.189 60.1272C409.38 59.9065 408.639 59.4853 408.036 58.9024C407.42 58.2766 406.958 57.5152 406.689 56.6791C406.348 55.5929 406.188 54.4579 406.216 53.3198C406.186 52.074 406.389 50.8336 406.812 49.6617C407.156 48.7308 407.695 47.8838 408.391 47.1768C409.035 46.5427 409.815 46.0641 410.672 45.7774C411.554 45.4831 412.479 45.3354 413.409 45.3402C414.389 45.3297 415.366 45.4707 416.303 45.7582C417.15 46.0196 417.924 46.4733 418.566 47.084C419.235 47.7495 419.74 48.562 420.039 49.4569C420.418 50.6163 420.596 51.832 420.566 53.0514V56.9944H422.981C423.174 56.9799 423.368 57.0072 423.549 57.0745C423.73 57.1417 423.895 57.2473 424.031 57.3841C424.301 57.764 424.425 58.228 424.381 58.6917C424.445 59.2046 424.328 59.7238 424.048 60.1588C423.902 60.2826 423.732 60.376 423.548 60.4337C423.365 60.4915 423.172 60.5123 422.981 60.495H420.566V61.2644C420.566 63.4574 420.013 65.0558 418.907 66.0594C417.8 67.0631 416.194 67.5649 414.091 67.5649L409.366 67.5646ZM413.426 48.8398C412.95 48.8204 412.475 48.9183 412.045 49.1249C411.615 49.3316 411.242 49.6407 410.959 50.0252C410.322 50.9557 410.008 52.0696 410.066 53.1956C410.066 54.6596 410.364 55.6589 410.959 56.1934C411.686 56.7718 412.604 57.0573 413.531 56.9941H416.646V53.022C416.72 51.9276 416.45 50.8375 415.876 49.903C415.587 49.5371 415.213 49.2485 414.785 49.0629C414.358 48.8774 413.891 48.8007 413.426 48.8397V48.8398Z" fill="#2463AF"/>
<path d="M432.745 45.34C435.429 45.34 437.389 45.8401 438.625 46.8404C439.222 47.3061 439.701 47.9056 440.024 48.5905C440.346 49.2755 440.503 50.0267 440.481 50.7834C440.485 51.4547 440.373 52.1216 440.148 52.7543C439.933 53.3574 439.645 53.9319 439.291 54.4647C438.948 54.9792 438.549 55.4535 438.101 55.8784C437.7 56.2633 437.266 56.6133 436.806 56.9244C437.006 56.973 437.212 56.9964 437.419 56.9941H442.511C442.713 56.9681 442.918 56.9934 443.108 57.0677C443.297 57.1419 443.465 57.2628 443.596 57.4192C443.817 57.8559 443.913 58.3449 443.875 58.8328C443.93 59.3004 443.812 59.772 443.543 60.1585C443.402 60.2805 443.238 60.3731 443.061 60.4309C442.884 60.4886 442.697 60.5103 442.511 60.4947H437.296C436.491 60.4983 435.688 60.4219 434.898 60.2665C434.135 60.1131 433.405 59.8227 432.745 59.4093C431.981 59.8272 431.154 60.1168 430.296 60.2665C429.534 60.4091 428.761 60.4854 427.986 60.4947H422.946C422.761 60.5074 422.577 60.4826 422.402 60.4218C422.228 60.3611 422.067 60.2657 421.931 60.1413C421.654 59.7645 421.529 59.2976 421.581 58.8329C421.555 58.3624 421.633 57.892 421.808 57.4547C421.96 57.1487 422.339 56.9943 422.946 56.9943H427.041C427.414 56.9943 427.834 56.9781 428.301 56.9428C428.854 56.894 429.404 56.8065 429.945 56.6811C429.787 55.9868 429.534 55.3175 429.193 54.692C428.896 54.158 428.538 53.6602 428.125 53.2088C427.737 52.7855 427.309 52.3998 426.848 52.0567C426.393 51.7205 425.933 51.3893 425.466 51.0632C425.267 50.9484 425.113 50.7703 425.028 50.5573C424.992 50.3909 424.974 50.2208 424.976 50.0504V47.8524C424.976 47.5959 425.197 47.3168 425.641 47.0153C426.184 46.6645 426.773 46.3885 427.39 46.1946C428.202 45.929 429.033 45.7251 429.876 45.5848C430.823 45.4201 431.784 45.3382 432.745 45.34ZM433.271 55.9095C433.67 55.6574 434.05 55.3767 434.408 55.0694C434.784 54.7518 435.125 54.394 435.423 54.0022C435.713 53.6193 435.954 53.2017 436.141 52.7592C436.325 52.3276 436.42 51.8633 436.421 51.3941C436.459 50.9975 436.381 50.5984 436.198 50.2445C436.015 49.8906 435.734 49.5971 435.388 49.3989C434.567 48.9967 433.659 48.8047 432.745 48.8399C431.926 48.8266 431.108 48.9206 430.313 49.1194C429.825 49.2346 429.351 49.3986 428.896 49.6091C429.98 50.2969 430.914 51.1959 431.644 52.2524C432.411 53.3584 432.963 54.5991 433.271 55.9095V55.9095Z" fill="#2463AF"/>
<path d="M450.875 54.8242C450.849 55.124 450.887 55.4258 450.988 55.7095C451.088 55.9933 451.248 56.2522 451.457 56.4689C451.989 56.8644 452.647 57.0512 453.307 56.994C453.774 57.0056 454.241 56.9646 454.699 56.8718C454.853 56.8417 454.999 56.7812 455.129 56.694C455.259 56.6068 455.371 56.4946 455.457 56.364C455.641 56.0439 455.744 55.6838 455.757 55.3149C455.792 54.8716 455.809 54.2766 455.81 53.5297V49.0497C455.803 49.0024 455.807 48.9541 455.822 48.9087C455.837 48.8632 455.862 48.8219 455.896 48.7879C455.929 48.7539 455.97 48.7282 456.016 48.7128C456.061 48.6975 456.109 48.6929 456.157 48.6994H459.383C459.43 48.6929 459.479 48.6976 459.524 48.713C459.569 48.7283 459.61 48.754 459.644 48.788C459.678 48.822 459.703 48.8633 459.718 48.9087C459.733 48.9541 459.737 49.0024 459.73 49.0497V54.8948C459.705 55.1945 459.753 55.4957 459.87 55.7729C459.986 56.0501 460.168 56.2951 460.399 56.4871C460.915 56.8463 461.535 57.0245 462.162 56.994C462.6 57.0042 463.037 56.9635 463.466 56.8728C463.77 56.8077 464.039 56.6339 464.224 56.3841C464.424 56.0697 464.539 55.7092 464.56 55.3372C464.606 54.8839 464.63 54.2966 464.63 53.5753V46.3185C464.623 46.2713 464.627 46.2231 464.642 46.1779C464.657 46.1326 464.682 46.0914 464.716 46.0576C464.75 46.0238 464.791 45.9983 464.836 45.9831C464.881 45.968 464.929 45.9635 464.977 45.9702H468.203C468.25 45.9636 468.298 45.968 468.344 45.9832C468.389 45.9984 468.43 46.0239 468.463 46.0577C468.497 46.0915 468.522 46.1326 468.537 46.1779C468.552 46.2232 468.557 46.2713 468.55 46.3185V54.8312C468.534 55.1435 468.599 55.4545 468.736 55.7351C468.874 56.0158 469.081 56.2568 469.337 56.4356C469.968 56.8376 470.708 57.0328 471.455 56.994H472.05C472.243 56.9794 472.436 57.0067 472.617 57.074C472.798 57.1413 472.963 57.2469 473.099 57.3837C473.369 57.7634 473.494 58.2275 473.45 58.6913C473.501 59.1892 473.377 59.6895 473.099 60.1059C472.963 60.2423 472.798 60.3477 472.617 60.4148C472.436 60.4818 472.242 60.5091 472.05 60.4946C471.249 60.5108 470.451 60.3972 469.687 60.1584C469.678 59.7717 469.52 59.4034 469.247 59.13C468.973 58.8565 468.605 58.6989 468.218 58.6898C467.831 58.6807 467.456 58.8209 467.17 59.0811C466.884 59.3414 466.709 59.7019 466.681 60.0877C465.883 60.3905 465.032 60.5289 464.179 60.4946H462.674C461.95 60.5165 461.233 60.352 460.591 60.017C460.026 59.7064 459.568 59.2318 459.278 58.6558C458.999 59.2917 458.494 59.8018 457.861 60.0875C457.063 60.3904 456.211 60.5288 455.358 60.4944H453.819C452.162 60.4944 451.03 59.8698 450.424 58.6204C450.146 59.2573 449.647 59.7722 449.019 60.0704C448.231 60.3853 447.384 60.5298 446.536 60.4944H442.755C442.521 60.4953 442.288 60.4834 442.056 60.4587C441.866 60.443 441.684 60.3756 441.53 60.2639C441.379 60.1409 441.269 59.9741 441.215 59.7863C441.135 59.4989 441.1 59.201 441.11 58.9029C441.063 58.3854 441.179 57.8662 441.443 57.4186C441.575 57.269 441.741 57.1527 441.926 57.0789C442.111 57.005 442.311 56.9758 442.51 56.9935H445.31C445.642 57.0126 445.973 56.9465 446.273 56.8017C446.503 56.6617 446.677 56.4446 446.762 56.1888C446.878 55.8449 446.938 55.4844 446.938 55.1215C446.949 54.6904 446.955 54.1596 446.955 53.5292V49.0492C446.948 49.0019 446.952 48.9536 446.967 48.9082C446.982 48.8627 447.007 48.8214 447.041 48.7874C447.074 48.7534 447.115 48.7277 447.161 48.7124C447.206 48.697 447.254 48.6924 447.302 48.6989H450.528C450.576 48.6924 450.624 48.6971 450.669 48.7124C450.714 48.7278 450.755 48.7535 450.789 48.7875C450.823 48.8215 450.848 48.8628 450.863 48.9082C450.878 48.9537 450.882 49.0019 450.875 49.0492L450.875 54.8242Z" fill="#2463AF"/>
<path d="M472.084 60.4946C471.704 60.5237 471.327 60.403 471.034 60.1583C470.75 59.765 470.625 59.2788 470.684 58.7972C470.639 58.3079 470.756 57.8174 471.017 57.4009C471.152 57.2563 471.319 57.1446 471.503 57.0741C471.688 57.0036 471.887 56.9762 472.084 56.994H473.799C474.261 57.0349 474.721 56.8907 475.076 56.5931C475.391 56.179 475.535 55.6602 475.479 55.1432V37.0444C475.472 36.9972 475.476 36.949 475.491 36.9036C475.506 36.8582 475.531 36.8169 475.565 36.783C475.599 36.7491 475.64 36.7235 475.685 36.7083C475.73 36.693 475.778 36.6885 475.826 36.6951H479.052C479.099 36.6886 479.147 36.6931 479.193 36.7084C479.238 36.7237 479.279 36.7493 479.313 36.7832C479.346 36.8171 479.372 36.8583 479.387 36.9037C479.402 36.949 479.406 36.9972 479.399 37.0444V56.0842C479.399 57.6018 479.087 58.7161 478.462 59.4273C477.838 60.1391 476.797 60.4949 475.339 60.4946H472.084Z" fill="#2463AF"/>
<path d="M487.904 60.1442C487.91 60.1915 487.906 60.2398 487.891 60.2852C487.876 60.3307 487.851 60.372 487.818 60.406C487.784 60.44 487.743 60.4657 487.698 60.481C487.652 60.4964 487.604 60.5011 487.557 60.4946H484.33C484.283 60.5011 484.235 60.4965 484.189 60.4811C484.144 60.4657 484.103 60.44 484.069 60.4061C484.036 60.3721 484.01 60.3307 483.995 60.2853C483.981 60.2398 483.976 60.1915 483.983 60.1442V37.0445C483.977 36.9972 483.981 36.949 483.996 36.9037C484.011 36.8584 484.036 36.8171 484.07 36.7832C484.103 36.7493 484.144 36.7238 484.19 36.7085C484.235 36.6932 484.283 36.6886 484.33 36.6952H487.557C487.604 36.6887 487.652 36.6932 487.697 36.7085C487.743 36.7238 487.784 36.7494 487.817 36.7833C487.851 36.8172 487.876 36.8584 487.891 36.9037C487.906 36.9491 487.91 36.9972 487.904 37.0445V60.1442Z" fill="#2463AF"/>
<path d="M510.233 45.3401V43.8346C510.226 43.787 510.23 43.7385 510.245 43.6929C510.26 43.6473 510.286 43.6059 510.32 43.5719C510.354 43.5379 510.395 43.5123 510.441 43.497C510.487 43.4818 510.535 43.4775 510.583 43.4842H513.803C513.85 43.4775 513.898 43.4818 513.944 43.497C513.989 43.5121 514.031 43.5377 514.065 43.5715C514.099 43.6054 514.124 43.6467 514.139 43.6922C514.155 43.7377 514.159 43.7861 514.152 43.8336V55.1442C514.096 55.6609 514.24 56.1795 514.555 56.5931C514.731 56.7405 514.935 56.8518 515.154 56.9206C515.373 56.9894 515.604 57.0143 515.833 56.9939H517.162C518.095 56.9939 518.562 57.5833 518.562 58.7619C518.622 59.2521 518.504 59.7476 518.23 60.1583C518.083 60.2821 517.913 60.3756 517.73 60.4333C517.547 60.4911 517.354 60.5119 517.162 60.4946H514.328C513.397 60.5455 512.47 60.3376 511.65 59.8939C511.302 59.6477 511.009 59.3321 510.789 58.967C510.569 58.6019 510.427 58.1952 510.373 57.7725C509.863 58.2127 509.267 58.5414 508.623 58.7378C507.932 58.9543 507.212 59.0629 506.488 59.0599C505.615 59.0657 504.747 58.9356 503.915 58.6742C503.123 58.4342 502.395 58.0185 501.786 57.458C501.177 56.8975 500.703 56.2067 500.398 55.4371C500.025 54.4845 499.847 53.467 499.873 52.4444C499.838 51.2857 500.034 50.1318 500.45 49.0498C500.767 48.2379 501.268 47.5112 501.916 46.9278C502.563 46.3444 503.337 45.9204 504.178 45.6896C505.009 45.4545 505.869 45.3369 506.733 45.3403L510.233 45.3401ZM503.548 41.07C503.5 41.0766 503.451 41.0719 503.405 41.0564C503.36 41.0409 503.318 41.015 503.284 40.9807C503.25 40.9464 503.225 40.9047 503.21 40.8589C503.195 40.813 503.191 40.7643 503.198 40.7166V37.6784C503.191 37.6307 503.195 37.582 503.21 37.5362C503.225 37.4903 503.25 37.4486 503.284 37.4143C503.318 37.3801 503.36 37.3541 503.405 37.3386C503.451 37.3231 503.5 37.3185 503.548 37.3251H506.488C506.536 37.3185 506.584 37.3232 506.63 37.3387C506.676 37.3542 506.717 37.3801 506.751 37.4144C506.785 37.4487 506.81 37.4904 506.825 37.5362C506.84 37.582 506.845 37.6307 506.838 37.6784V40.7166C506.845 40.7643 506.84 40.813 506.825 40.8588C506.81 40.9047 506.785 40.9464 506.751 40.9806C506.717 41.0149 506.676 41.0408 506.63 41.0563C506.584 41.0718 506.536 41.0765 506.488 41.07H503.548ZM506.943 55.5591C507.402 55.5966 507.864 55.5299 508.294 55.3642C508.725 55.1984 509.112 54.9377 509.428 54.6016C510.018 53.7914 510.303 52.7987 510.233 51.7987V48.8393H507.118C506.247 48.7958 505.389 49.0679 504.703 49.6057C504.096 50.1166 503.793 51.0566 503.793 52.4257C503.757 52.8574 503.813 53.2917 503.958 53.6999C504.102 54.1082 504.332 54.4809 504.632 54.7934C505.277 55.3338 506.103 55.6077 506.943 55.5592V55.5591ZM508.098 41.07C508.05 41.0766 508.001 41.072 507.956 41.0565C507.91 41.041 507.868 41.0151 507.834 40.9808C507.8 40.9465 507.775 40.9048 507.76 40.8589C507.745 40.8131 507.741 40.7643 507.748 40.7166V37.6784C507.741 37.6307 507.745 37.582 507.76 37.5361C507.775 37.4903 507.8 37.4485 507.834 37.4142C507.868 37.38 507.91 37.354 507.956 37.3386C508.001 37.3231 508.05 37.3185 508.098 37.3251H511.037C511.085 37.3185 511.134 37.3231 511.18 37.3386C511.225 37.3541 511.267 37.3801 511.301 37.4143C511.335 37.4486 511.36 37.4903 511.375 37.5362C511.39 37.582 511.394 37.6307 511.387 37.6784V40.7166C511.394 40.7643 511.39 40.813 511.375 40.8589C511.36 40.9047 511.335 40.9464 511.301 40.9807C511.267 41.015 511.225 41.0409 511.18 41.0564C511.134 41.0719 511.085 41.0766 511.037 41.07H508.098Z" fill="#2463AF"/>
<path d="M525.146 58.6915C524.86 59.3388 524.33 59.8471 523.672 60.1061C522.816 60.3957 521.915 60.5274 521.012 60.4948H517.757C517.376 60.524 517 60.4033 516.707 60.1586C516.425 59.7776 516.3 59.3032 516.357 58.8328C516.309 58.3322 516.426 57.8296 516.689 57.4011C516.825 57.2566 516.991 57.1449 517.176 57.0744C517.361 57.0039 517.56 56.9765 517.757 56.9942H520.032C520.364 57.0133 520.695 56.9473 520.994 56.8023C521.222 56.668 521.395 56.4584 521.484 56.2097C521.603 55.8731 521.667 55.5202 521.677 55.1636C521.7 54.7325 521.712 54.2031 521.712 53.5754V46.3185C521.707 46.2573 521.724 46.1964 521.758 46.1457C521.793 46.0951 521.844 46.0578 521.903 46.0399C522.03 45.9932 522.165 45.9696 522.301 45.9702H525.285C525.332 45.9636 525.38 45.9681 525.425 45.9833C525.471 45.9985 525.512 46.024 525.545 46.0577C525.579 46.0915 525.604 46.1327 525.619 46.1779C525.634 46.2232 525.638 46.2713 525.632 46.3185V54.8313C525.616 55.1435 525.681 55.4545 525.818 55.7351C525.956 56.0158 526.163 56.2568 526.419 56.4356C527.05 56.8376 527.79 57.0328 528.536 56.994H529.132C529.324 56.9795 529.518 57.0068 529.699 57.0741C529.88 57.1413 530.045 57.247 530.182 57.3837C530.451 57.7636 530.575 58.2276 530.532 58.6913C530.581 59.1867 530.464 59.6846 530.199 60.1059C530.06 60.2451 529.893 60.3522 529.709 60.4194C529.524 60.4866 529.327 60.5123 529.132 60.4946C528.325 60.5099 527.522 60.3963 526.752 60.1584C526.4 60.033 526.077 59.8386 525.801 59.5867C525.525 59.3349 525.303 59.0305 525.146 58.6915ZM519.717 67.2143C519.669 67.2209 519.62 67.2163 519.575 67.2008C519.529 67.1853 519.488 67.1594 519.454 67.1251C519.42 67.0908 519.394 67.0491 519.379 67.0032C519.364 66.9574 519.36 66.9086 519.367 66.8609V63.8227C519.36 63.775 519.364 63.7263 519.379 63.6804C519.394 63.6346 519.42 63.5928 519.454 63.5585C519.488 63.5242 519.529 63.4983 519.575 63.4829C519.62 63.4674 519.669 63.4628 519.717 63.4694H522.657C522.704 63.4628 522.753 63.4674 522.799 63.4829C522.845 63.4984 522.886 63.5243 522.92 63.5586C522.954 63.5929 522.98 63.6346 522.995 63.6804C523.01 63.7262 523.014 63.775 523.007 63.8227V66.8609C523.014 66.9087 523.01 66.9574 522.995 67.0032C522.98 67.0491 522.954 67.0908 522.92 67.125C522.886 67.1593 522.845 67.1852 522.799 67.2007C522.753 67.2162 522.704 67.2208 522.657 67.2143H519.717ZM524.266 67.2143C524.219 67.2208 524.17 67.2162 524.124 67.2007C524.079 67.1852 524.037 67.1593 524.003 67.125C523.969 67.0907 523.944 67.049 523.929 67.0032C523.914 66.9573 523.91 66.9086 523.917 66.8609V63.8227C523.91 63.775 523.914 63.7263 523.929 63.6805C523.944 63.6346 523.969 63.5929 524.003 63.5586C524.037 63.5243 524.079 63.4984 524.124 63.4829C524.17 63.4674 524.219 63.4628 524.266 63.4694H527.207C527.255 63.4628 527.303 63.4675 527.349 63.483C527.395 63.4986 527.436 63.5245 527.47 63.5587C527.504 63.593 527.53 63.6347 527.545 63.6805C527.56 63.7263 527.564 63.775 527.557 63.8227V66.8609C527.564 66.9086 527.56 66.9573 527.545 67.0031C527.53 67.0489 527.504 67.0906 527.47 67.1249C527.436 67.1592 527.395 67.1851 527.349 67.2006C527.303 67.2161 527.255 67.2208 527.207 67.2143H524.266Z" fill="#2463AF"/>
<path d="M538.966 45.34C541.649 45.34 543.609 45.8401 544.846 46.8404C545.443 47.3061 545.922 47.9056 546.244 48.5905C546.567 49.2755 546.723 50.0267 546.702 50.7834C546.706 51.4547 546.593 52.1216 546.369 52.7543C546.154 53.3574 545.866 53.9319 545.511 54.4647C545.169 54.9792 544.77 55.4534 544.321 55.8783C543.92 56.2632 543.487 56.6131 543.026 56.9243C543.227 56.9729 543.433 56.9963 543.639 56.994H548.732C548.934 56.968 549.139 56.9933 549.329 57.0675C549.518 57.1418 549.686 57.2627 549.817 57.419C550.037 57.8558 550.134 58.3447 550.096 58.8326C550.151 59.3003 550.033 59.7719 549.764 60.1584C549.623 60.2804 549.459 60.373 549.282 60.4307C549.104 60.4885 548.917 60.5102 548.731 60.4946H543.516C542.712 60.4982 541.909 60.4217 541.119 60.2664C540.355 60.113 539.626 59.8226 538.966 59.4092C538.202 59.8271 537.374 60.1167 536.516 60.2664C535.754 60.4089 534.982 60.4853 534.206 60.4946H529.166C528.982 60.5072 528.797 60.4824 528.623 60.4217C528.449 60.3609 528.288 60.2655 528.152 60.1412C527.875 59.7644 527.75 59.2974 527.801 58.8328C527.776 58.3623 527.854 57.8919 528.029 57.4546C528.181 57.1486 528.56 56.9942 529.166 56.9942H533.261C533.634 56.9942 534.054 56.978 534.521 56.9427C535.075 56.8939 535.625 56.8064 536.166 56.681C536.008 55.9866 535.754 55.3174 535.414 54.6919C535.116 54.1579 534.758 53.6601 534.346 53.2086C533.957 52.7854 533.53 52.3997 533.069 52.0566C532.614 51.7203 532.153 51.3892 531.687 51.0631C531.488 50.9483 531.334 50.7702 531.249 50.5572C531.212 50.3908 531.195 50.2207 531.196 50.0503V47.8523C531.196 47.5957 531.418 47.3167 531.861 47.0152C532.405 46.6644 532.994 46.3884 533.611 46.1945C534.423 45.9289 535.254 45.725 536.096 45.5847C537.044 45.42 538.004 45.3382 538.966 45.34ZM539.491 55.9095C539.89 55.6575 540.27 55.3767 540.629 55.0694C541.005 54.7518 541.345 54.394 541.644 54.0022C541.934 53.6193 542.175 53.2017 542.361 52.7592C542.545 52.3276 542.641 51.8633 542.641 51.3941C542.679 50.9975 542.602 50.5984 542.419 50.2445C542.236 49.8906 541.955 49.5971 541.609 49.3989C540.788 48.9967 539.88 48.8047 538.966 48.8399C538.147 48.8266 537.329 48.9205 536.534 49.1194C536.046 49.2346 535.571 49.3986 535.117 49.6091C536.201 50.2969 537.135 51.1959 537.864 52.2524C538.632 53.3584 539.184 54.5991 539.491 55.9095V55.9095Z" fill="#2463AF"/>
<path d="M552.266 52.7724C552.258 51.6019 552.453 50.4388 552.844 49.3355C553.162 48.4613 553.679 47.6729 554.353 47.0324C555.001 46.4369 555.774 45.9955 556.616 45.7409C558.485 45.2007 560.47 45.2067 562.335 45.7581C563.192 46.019 563.978 46.4725 564.633 47.0839C565.319 47.7561 565.836 48.5813 566.142 49.4919C566.53 50.6612 566.714 51.8889 566.685 53.1208V53.7315C566.686 53.9239 566.674 54.1161 566.65 54.307C566.595 55.0623 566.84 55.809 567.333 56.3839C567.729 56.7759 568.263 56.9952 568.82 56.9938H569.836C570.028 56.9793 570.222 57.0066 570.403 57.0739C570.585 57.1411 570.749 57.2468 570.886 57.3835C571.155 57.7634 571.279 58.2274 571.236 58.6911C571.285 59.1865 571.168 59.6844 570.903 60.1057C570.764 60.245 570.597 60.3521 570.413 60.4193C570.228 60.4865 570.031 60.5121 569.836 60.4944C569.438 60.4944 569.024 60.4825 568.593 60.4587C568.154 60.4343 567.719 60.357 567.298 60.2285C566.864 60.0972 566.45 59.9066 566.067 59.6621C565.653 59.3883 565.298 59.0327 565.026 58.6171C564.403 59.3669 563.585 59.9299 562.662 60.2437C560.595 60.8971 558.378 60.9034 556.307 60.2619C555.397 59.9596 554.586 59.4158 553.961 58.6887C553.742 59.0485 553.454 59.3611 553.113 59.6086C552.799 59.8364 552.455 60.0212 552.092 60.1579C551.741 60.2877 551.377 60.3768 551.006 60.4234C550.657 60.4685 550.307 60.4921 549.956 60.4941H548.731C548.537 60.5087 548.341 60.4797 548.16 60.4093C547.978 60.339 547.814 60.2289 547.681 60.0872C547.454 59.6669 547.334 59.1973 547.331 58.7197C547.328 58.2421 547.442 57.7711 547.663 57.3479C547.807 57.2185 547.976 57.1202 548.16 57.0592C548.344 56.9982 548.538 56.9759 548.731 56.9935H550.096C550.38 56.9904 550.661 56.9284 550.92 56.8115C551.179 56.6945 551.411 56.5251 551.601 56.314C552.044 55.8596 552.277 55.0276 552.3 53.818C552.278 53.6444 552.266 53.4697 552.266 53.2947L552.266 52.7724ZM559.458 48.8397C558.989 48.8039 558.519 48.8836 558.088 49.072C557.657 49.2604 557.279 49.5516 556.986 49.9201C556.394 50.8545 556.114 51.9531 556.186 53.0572C556.186 54.5445 556.453 55.6134 556.986 56.264C557.663 56.894 558.554 57.2428 559.479 57.2394C560.404 57.236 561.293 56.8807 561.965 56.2458C562.499 55.5844 562.766 54.5216 562.766 53.0572C562.766 50.2452 561.663 48.8394 559.459 48.8397H559.458Z" fill="#2463AF"/>
<path d="M571.62 48.1744C572.356 47.3489 573.233 46.6616 574.21 46.1449C575.35 45.5769 576.613 45.3004 577.886 45.3402C579.228 45.2981 580.564 45.5418 581.805 46.055C582.789 46.4807 583.654 47.1395 584.326 47.9745C584.966 48.7994 585.425 49.7504 585.673 50.7652C585.946 51.867 586.081 52.9985 586.075 54.1336C586.075 54.2961 586.069 54.4476 586.057 54.5869C586.046 54.7263 586.04 54.8656 586.04 55.006C586.064 55.2987 586.154 55.5823 586.302 55.8359C586.451 56.0894 586.654 56.3065 586.897 56.471C587.511 56.8504 588.225 57.0329 588.945 56.994H589.54C589.733 56.9795 589.926 57.0068 590.108 57.074C590.289 57.1413 590.453 57.247 590.59 57.3838C590.86 57.7635 590.984 58.2275 590.94 58.6913C590.99 59.1867 590.873 59.6846 590.608 60.1059C590.469 60.2452 590.302 60.3523 590.117 60.4195C589.933 60.4867 589.735 60.5124 589.54 60.4947C588.667 60.5109 587.797 60.3795 586.968 60.1059C586.582 59.9566 586.232 59.7286 585.94 59.4363C585.648 59.1441 585.42 58.794 585.27 58.4086C584.88 59.1632 584.226 59.7481 583.433 60.0524C582.516 60.3691 581.55 60.5189 580.58 60.4947H569.766C569.571 60.5092 569.376 60.4803 569.195 60.4099C569.013 60.3395 568.849 60.2294 568.715 60.0878C568.489 59.6674 568.369 59.1978 568.366 58.7202C568.363 58.2426 568.477 57.7716 568.698 57.3484C568.842 57.219 569.011 57.1207 569.195 57.0598C569.379 56.9988 569.573 56.9764 569.766 56.994H579.075C579.569 57.0055 580.063 56.9587 580.546 56.8547C580.88 56.7838 581.184 56.6139 581.42 56.367C581.645 56.1051 581.79 55.7852 581.84 55.4442C581.917 54.9776 581.952 54.5053 581.945 54.0326C581.951 53.3417 581.88 52.6524 581.735 51.9769C581.613 51.3898 581.375 50.8328 581.035 50.3382C580.707 49.8724 580.268 49.4953 579.758 49.2406C579.139 48.9538 578.462 48.8165 577.78 48.8398C577.055 48.8299 576.337 48.9856 575.68 49.2951C575.051 49.598 574.482 50.0131 574.001 50.5199C573.973 50.5576 573.937 50.5888 573.896 50.6113C573.856 50.6339 573.81 50.6473 573.764 50.6506C573.717 50.6538 573.67 50.6469 573.626 50.6303C573.583 50.6136 573.543 50.5877 573.51 50.5542L571.691 48.6651C571.503 48.4783 571.48 48.3147 571.62 48.1744ZM576.696 67.1445C576.648 67.1511 576.599 67.1465 576.553 67.131C576.508 67.1156 576.466 67.0896 576.432 67.0554C576.398 67.0211 576.373 66.9794 576.358 66.9335C576.342 66.8876 576.338 66.8389 576.345 66.7911V63.7529C576.338 63.7051 576.342 63.6564 576.357 63.6105C576.372 63.5646 576.398 63.5228 576.432 63.4885C576.466 63.4542 576.508 63.4283 576.553 63.4128C576.599 63.3974 576.648 63.3929 576.696 63.3996H580.055C580.103 63.393 580.152 63.3976 580.198 63.4131C580.243 63.4285 580.285 63.4545 580.319 63.4888C580.353 63.523 580.378 63.5648 580.393 63.6106C580.408 63.6565 580.412 63.7052 580.405 63.7529V66.7911C580.412 66.8388 580.408 66.8875 580.393 66.9333C580.378 66.9791 580.352 67.0208 580.319 67.0551C580.285 67.0894 580.243 67.1153 580.198 67.1308C580.152 67.1463 580.103 67.151 580.055 67.1445H576.696Z" fill="#2463AF"/>
<path d="M589.539 60.4946C589.159 60.5237 588.782 60.403 588.489 60.1583C588.205 59.765 588.08 59.2788 588.139 58.7972C588.094 58.3079 588.211 57.8174 588.472 57.4009C588.607 57.2563 588.774 57.1446 588.959 57.0741C589.143 57.0036 589.342 56.9762 589.539 56.994H591.254C591.716 57.0349 592.176 56.8907 592.531 56.5931C592.846 56.179 592.99 55.6602 592.934 55.1432V37.0444C592.927 36.9972 592.931 36.949 592.946 36.9036C592.961 36.8582 592.986 36.8169 593.02 36.783C593.054 36.7491 593.095 36.7235 593.14 36.7083C593.185 36.693 593.233 36.6885 593.281 36.6951H596.507C596.554 36.6886 596.602 36.6931 596.648 36.7084C596.693 36.7237 596.734 36.7493 596.768 36.7832C596.801 36.8171 596.827 36.8583 596.842 36.9037C596.857 36.949 596.861 36.9972 596.854 37.0444V56.0842C596.854 57.6018 596.542 58.7161 595.917 59.4273C595.293 60.1391 594.252 60.4949 592.794 60.4946H589.539Z" fill="#2463AF"/>
<path d="M605.359 60.1442C605.366 60.1915 605.362 60.2398 605.347 60.2852C605.332 60.3307 605.307 60.372 605.273 60.406C605.239 60.44 605.198 60.4657 605.153 60.481C605.108 60.4964 605.06 60.5011 605.012 60.4946H601.786C601.738 60.5011 601.69 60.4965 601.645 60.4811C601.6 60.4657 601.558 60.44 601.525 60.4061C601.491 60.3721 601.466 60.3307 601.451 60.2853C601.436 60.2398 601.432 60.1915 601.439 60.1442V37.0445C601.432 36.9972 601.436 36.949 601.451 36.9037C601.466 36.8584 601.492 36.8171 601.525 36.7832C601.559 36.7493 601.6 36.7238 601.645 36.7085C601.69 36.6932 601.738 36.6886 601.786 36.6952H605.012C605.06 36.6887 605.108 36.6932 605.153 36.7085C605.198 36.7238 605.239 36.7494 605.273 36.7833C605.306 36.8172 605.332 36.8584 605.347 36.9037C605.362 36.9491 605.366 36.9972 605.359 37.0445V60.1442Z" fill="#2463AF"/>
</svg>
